<svg version="1.2" xmlns="http://www.w3.org/2000/svg" viewBox="0 0 5000 5000" width="5000" height="5000">
	<style>
		.s0 { fill: #757575;stroke: #020202;stroke-miterlimit:10 } 
		.s1 { fill: #020202 } 
		.s2 { fill: #ffffff;stroke: #000000;stroke-linecap: round;stroke-linejoin: round } 
		.s3 { fill: #000000 } 
		.s4 { fill: none;stroke: #000000;stroke-miterlimit:10 } 
	</style>
	<g id="Layer 1">
	</g>
	<g id="&lt;Group&gt;">
		<g id="&lt;Group&gt;">
			<path id="&lt;Path&gt;" class="s0" d="m3190.49 4137.26l-620.1 435.2-596.04-427.1c-320.15 195.23-699.47 191.43-954.74 847.76h1142.71 853.36 1142.71c-258.7-665.34-645.04-652.25-967.9-855.86z"/>
			<g id="&lt;Group&gt;">
				<path id="&lt;Path&gt;" class="s1" d="m2451.17 4606.52c-128.11 79.53-256.12 159.16-384.96 237.41l-12.21 7.38-6.15-13.27c-45.71-98.54-94.93-195.47-139.19-294.67-22.31-49.5-41.72-100.3-62.39-150.57-19.34-50.83-38.62-101.72-55.18-153.8l3.44-1.54c27.9 47 53.1 95.2 78.22 143.46 23.85 48.82 48.9 97.09 71.06 146.68 44.69 98.96 84.4 200.2 127.67 299.83l-18.32-5.88c131.51-73.64 263.86-145.89 396.1-218.25z"/>
			</g>
			<g id="&lt;Group&gt;">
				<path id="&lt;Path&gt;" class="s1" d="m2692.54 4603.3c132.24 72.36 264.59 144.61 396.1 218.25l-18.32 5.88c43.26-99.63 82.98-200.87 127.67-299.83 22.16-49.59 47.21-97.86 71.06-146.68 25.12-48.26 50.32-96.46 78.22-143.46l3.44 1.54c-16.57 52.08-35.84 102.97-55.19 153.8-20.66 50.27-40.08 101.07-62.39 150.57-44.25 99.2-93.47 196.13-139.19 294.67l-6.14 13.27-12.22-7.38c-128.84-78.25-256.84-157.88-384.95-237.41z"/>
			</g>
			<path id="&lt;Path&gt;" class="s2" d="m3190.49 4137.26c-20.11-12.69-40.01-26.13-59.61-40.72-333.75-248.69-244.3-732.98-244.3-732.98l-559.61-6.77-35.55 6.77c0 0 89.45 484.29-244.3 732.98-23.84 17.75-48.12 33.81-72.77 48.82l596.04 427.1z"/>
		</g>
		<g id="&lt;Group&gt;">
			<g id="&lt;Group&gt;">
				<path id="&lt;Path&gt;" class="s2" d="m3941.01 2473.19c-8.19-95.82-47.32-176.35-158.94-150.44-21.14 4.9-45.2 18.76-68.61 36.37 14.27-78.37 25.31-158.22 32.62-239.01 71.98-791.9-124.34-1596.89-1145.26-1596.89h-23.56c-1021 0-1217.31 804.99-1145.34 1596.89 7.39 80.79 18.36 160.64 32.62 239.01-23.4-17.61-47.4-31.47-68.53-36.37-111.62-25.91-150.75 54.62-158.94 150.44-14.78 173.13 100.49 334.86 266.82 419.16 27.94 14.15 86.53 29.46 147.02 36.33 189.22 367.65 497.88 614.57 938.13 592.02 440.17 22.55 748.91-224.37 938.13-592.02 60.41-6.87 119-22.18 146.94-36.33 166.33-84.3 281.6-246.03 266.9-419.16z"/>
				<g id="&lt;Group&gt;">
					<g id="&lt;Group&gt;">
						<path id="&lt;Path&gt;" class="s3" d="m2625.97 2053.24c-3.54 62.66 15.55 122.75 48.61 171.28 16.82 24.56 37.19 43.34 61.73 63.83 23.08 20.52 49.81 45.3 60.85 81.91 5.16 17.84 5.16 37.3 2.2 53.99-2.85 17.43-9.14 35.52-19.27 50.47-20.96 30.32-53.69 48.77-85.94 56.29-64.88 15.23-132.03 4.59-187.32-25.22 30.24 8.12 60.81 12.14 91.28 11.08 30.24-0.29 60.34-4.51 87.66-13.88 27.13-9.6 51.24-25.18 64.51-47.49 12.99-21.44 17.88-51.21 10.9-74.91-12.84-49.54-80.09-80.09-111.29-140.65-32.8-56.96-42.05-126.41-23.92-186.7z"/>
					</g>
					<g id="&lt;Group&gt;">
						<path id="&lt;Path&gt;" class="s3" d="m1737.36 1683.79c17.12-44.38 42.94-80.63 76-112.25 33.13-31.6 77.5-55.7 120.54-68.23 46.92-13.36 89.2-16.16 133.7-13.6 43.71 3.4 88.65 11.96 130.05 36.64-41.95 22.17-80.27 37.64-119.22 51.02-38.11 13-78.23 23.95-111.55 33.3-36.86 10.9-69.33 21.14-106.09 35.02-37.08 13.44-76.47 29.31-123.43 38.1z"/>
					</g>
					<path id="&lt;Path&gt;" class="s2" d="m2867.35 2851.99c-318.47 381.92-549.74 0-549.74 0z"/>
					<g id="&lt;Group&gt;">
						<path id="&lt;Path&gt;" class="s3" d="m3440.71 1683.79c-46.95-8.77-86.38-24.63-123.46-38.07-36.72-13.89-69.23-24.17-106.06-35.05-33.32-9.35-73.43-20.3-111.58-33.28-38.91-13.4-77.28-28.87-119.18-51.04 41.4-24.68 86.34-33.24 130.04-36.64 44.51-2.56 86.79 0.26 133.71 13.6 43.11 12.55 87.37 36.66 120.5 68.25 33.06 31.61 58.88 67.87 76.03 112.23z"/>
					</g>
					<g id="&lt;Group&gt;">
						<path id="&lt;Path&gt;" class="s3" d="m1365.87 2515.24c29.37 3.22 55.33 20.59 77.35 38.82 22.27 18.68 41.11 40.65 57.82 64.1 8.12 12.23 15.62 24.34 22.16 37.04 6.44 13.46 12.51 26.11 17.15 39.54 10.03 26.49 17.63 52.99 24.69 80.98-20.66-20.37-36.24-44.61-50.87-68.06-7.61-11.57-14.26-23.73-21.54-34.48-7.13-11.56-14.56-23.02-22.31-33.67-15.07-22.34-31.42-43.77-47.91-65.09-17.19-20.87-33.79-41.73-56.54-59.18z"/>
					</g>
					<g id="&lt;Group&gt;">
						<path id="&lt;Path&gt;" class="s3" d="m3812.2 2515.24c-22.78 17.43-39.38 38.29-56.57 59.16-16.53 21.32-32.88 42.75-47.91 65.08-7.79 10.64-15.18 22.08-22.31 33.68l-21.5 34.52c-14.63 23.46-30.25 47.69-50.95 68.04 7.1-27.97 14.71-54.47 24.73-80.96 4.64-13.45 10.71-26.08 17.15-39.56 6.51-12.69 14.04-24.85 22.12-37.06 16.72-23.44 35.59-45.44 57.86-64.11 22.02-18.23 47.98-35.58 77.38-38.79z"/>
					</g>
					<path id="&lt;Path&gt;" class="s3" d="m2081.94 2207.79c-38.25 38.25-100.28 38.24-138.53-0.04-38.26-38.27-38.33-100.31-0.08-138.57 38.26-38.25 100.36-38.21 138.61 0.04 38.25 38.29 38.25 100.32 0 138.57z"/>
					<path id="&lt;Path&gt;" class="s3" d="m3097.02 2207.79c38.18 38.25 100.27 38.24 138.53-0.04 38.25-38.27 38.25-100.31 0-138.57-38.26-38.25-100.28-38.21-138.53 0.04-38.26 38.29-38.26 100.32 0 138.57z"/>
					<g id="&lt;Group&gt;">
						<path id="&lt;Path&gt;" class="s3" d="m2931.46 2649.59c-60.75-38.66-204.33-55.22-276.08-27.61-88.36 33.13-55.22 104.92 11.01 121.49l171.19 5.52c143.58-11.04 110.44 160.13 99.4 259.51-5.52 93.86 5.52 314.73-99.4 353.39-22.09 11.05-149.1 5.52-165.67-11.05-44.14-55.22 38.65-104.9-66.23-99.38-11.41 0-20.7 0.95-29 2.4-8.3-1.45-17.59-2.4-29-2.4-104.89-5.52-22.09 44.16-66.23 99.38-16.57 16.57-143.58 22.1-165.67 11.05-104.93-38.66-93.88-259.53-99.41-353.39-11.04-99.38-44.17-270.55 99.41-259.51l171.19-5.52c66.23-16.57 99.36-88.36 11.01-121.49-71.76-27.61-215.34-11.05-276.08 27.61-160.11 99.4-99.37 496.95-71.75 657.08 27.57 121.47 44.14 220.87 187.72 242.96 49.7 5.52 104.92 5.52 154.62 5.52 37.34 0 63.93 4.85 84.19-1.46 20.26 6.31 46.84 1.46 84.19 1.46 49.69 0 104.92 0 154.62-5.52 143.58-22.09 160.15-121.49 187.72-242.96 27.61-160.13 88.36-557.68-71.75-657.08z"/>
					</g>
				</g>
				<g id="&lt;Group&gt;">
					<path id="&lt;Path&gt;" class="s4" d="m2380.58 2132.52v246.68h-587.77v-246.68z"/>
					<path id="&lt;Path&gt;" class="s4" d="m3429.16 2132.52v246.68h-587.78v-246.68z"/>
					<path id="&lt;Path&gt;" class="s4" d="m2380.58 2215.08c0 0 355.8-123.13 460.8 40.78"/>
					<path id="&lt;Path&gt;" class="s4" d="m1792.81 2255.86h-278.16"/>
					<path id="&lt;Path&gt;" class="s4" d="m3702.71 2255.86h-278.16"/>
				</g>
			</g>
			<g id="&lt;Group&gt;">
				<path id="&lt;Path&gt;" class="s3" d="m4055.7 1367.87c0-212.04-141.24-622.06-275.09-796.28-48.72-63.46-112.79-128.87-184.18-165.51-74.53-38.24-199.82-81.2-305.66-34.52-224.92-434.01-715.48-438.79-1172.85-236.29-241.73 107.03-449.75 260.88-679.78 388.17-114.62 63.43-240.28 126.74-367.18 163.32-74.75 21.55-160.99 17.14-229.45 37.18 77.31 80.79 184.98 97.3 279.92 146.29-40.09 38.1-114.62 57.49-172.33 57.52 58.59 26.12 217.68 93.92 416.77 36.48-157.99 67.02-165.96 284.07-199.09 364.05-82 197.75 83.53 669.24 151.11 810.21 53.18 110.92 124.49 240.14 247.15 282.65-15.43-109.07-20.56-758.87 27.94-929.97 37.45-132.15 110.74-220.29 204.07-326.18 71.97-81.7 164.42-130.9 260.24-177.77 24.07 56.85-23.33 116.3-66.78 150.23 152.21 38.2 388.76-44.7 532.19-106.2 93.77-40.23 269.38-157.7 344.65-310.64-7.97 61.01-115.79 219.76-154.85 262.04 89.31 1.4 262.95-104.14 319.34-171.78-51.41 172.47-114.61 201.31-144.09 275.84 159.97-44.74 260.47-141.42 350.06-295.59 64.88 140.71 165.09 272.55 228.79 412.6 48.94 107.59 186.37 279.22 197.71 776.19 3.44 148.04 20.19 258.01 19.6 400.64 23.7-88.37-30.94 149.67 98.16-57.8 46.74-75.23 159.09-329.38 175.1-415.4 43.08-231.53 98.53-302.97 98.53-539.48z"/>
			</g>
		</g>
	</g>
</svg>