<svg
        version="1.2"
        xmlns="http://www.w3.org/2000/svg"
        viewBox="0 0 5000 5000"
        width="5000"
        height="5000"
      >
        <style>
          .s0 {
            fill: #757575;
          }
          .s1 {
            fill: #000000;
          }
          .s2 {
            fill: #ffffff;
            stroke: #000000;
            stroke-linecap: round;
            stroke-linejoin: round;
            stroke-width: 5;
          }
          .s3 {
            fill: #000000;
            stroke: #000000;
            stroke-miterlimit: 10;
          }
        </style>
        <g id="Layer 1"></g>
        <g id="&lt;Group&gt;">
          <g id="&lt;Group&gt;">
            <g id="&lt;Group&gt;">
              <g id="&lt;Group&gt;">
                <path
                  id="&lt;Path&gt;"
                  class="s0"
                  d="m1534.61 4327.32l-142.64 333.48 266.23 98.2-293.95 223.11h426.57v-772.04c-83.91 40.89-170.37 75.2-256.21 117.25z"
                />
                <g id="&lt;Group&gt;">
                  <path
                    id="&lt;Path&gt;"
                    class="s1"
                    d="m1518.78 4318.08q-71.33 166.74-142.64 333.48c-4.9 11.46-1.11 22.46 10.96 26.93q133.12 49.1 266.23 98.2-2.19-16.76-4.39-33.52c-97.98 74.38-195.96 148.73-293.94 223.12-13.67 10.38-10.57 34.16 9.25 34.16q213.29 0 426.57 0c9.99 0 18.33-8.34 18.33-18.34q0-386.02 0-772.04c0-14.79-15.34-21.67-27.59-15.83-84.79 40.43-171.47 76.67-256.2 117.25-21.33 10.2-2.71 41.83 18.51 31.66 84.71-40.58 171.4-76.82 256.2-117.26-9.2-5.26-18.39-10.56-27.59-15.82q0 386.02 0 772.04c6.11-6.12 12.23-12.21 18.34-18.33q-213.28 0-426.57 0 4.63 17.08 9.26 34.16c97.98-74.38 195.97-148.73 293.95-223.11 12.88-9.78 11.41-27.68-4.39-33.52q-133.11-49.1-266.23-98.2 5.48 13.49 10.96 26.93 71.34-166.74 142.64-333.48c9.2-21.49-22.38-40.19-31.66-18.48z"
                  />
                </g>
              </g>
              <g id="&lt;Group&gt;">
                <path
                  id="&lt;Path&gt;"
                  class="s0"
                  d="m3455.85 4322.38l144.75 338.42-266.23 98.2 293.95 223.11h408.84c-159.72-410.77-369.16-557.46-581.31-659.73z"
                />
                <g id="&lt;Group&gt;">
                  <path
                    id="&lt;Path&gt;"
                    class="s1"
                    d="m3440.02 4331.61c48.24 112.81 96.52 225.62 144.75 338.43q5.48-13.44 10.96-26.93-133.11 49.1-266.23 98.2c-15.79 5.84-17.26 23.74-4.37 33.52 51.36 39 102.71 77.97 154.07 116.96 30.8 23.35 108.01 108.66 149.12 108.66 136.27 0 272.57 0 408.84 0 10.92 0 22.17-11.93 17.69-23.21-119.22-298.96-298.5-528.55-589.76-670.7-21.13-10.31-39.75 21.31-18.48 31.66 282.1 137.7 457.26 358.85 572.86 648.78 5.91-7.73 11.78-15.47 17.69-23.2-134.91 0-269.85 0-404.76 0 7.81 0-19.55-16.26-33.01-26.5-33.88-25.72-67.8-51.43-101.67-77.15q-77.03-58.5-154.11-116.96-2.15 16.76-4.37 33.52 133.12-49.1 266.24-98.2c12.07-4.47 15.86-15.47 10.95-26.93-48.23-112.8-96.51-225.62-144.75-338.43-9.28-21.7-40.86-3-31.66 18.48z"
                  />
                </g>
              </g>
              <g id="&lt;Group&gt;">
                <path
                  id="&lt;Path&gt;"
                  class="s0"
                  d="m1391.97 4660.8l142.64-333.48c-208.68 102.13-413.88 250.61-571.1 654.79h400.74l293.95-223.11z"
                />
                <g id="&lt;Group&gt;">
                  <path
                    id="&lt;Path&gt;"
                    class="s1"
                    d="m1407.8 4670.04q71.34-166.74 142.64-333.48c7.17-16.73-7.59-33.74-25.08-25.07-286.2 141.89-462.2 371.45-579.52 665.75-4.52 11.28 6.75 23.21 17.67 23.21q200.37 0 400.74 0c37.8 0 106.87-76.6 134.96-97.91 56.09-42.58 112.17-85.13 168.25-127.71 12.88-9.78 11.41-27.68-4.39-33.52q-133.11-49.1-266.23-98.2c-22.24-8.2-31.73 27.25-9.74 35.38q133.12 49.1 266.23 98.2-2.19-16.76-4.39-33.52-69.91 53.08-139.86 106.15-52.73 40.02-105.45 80.04c-10.69 8.13-53.15 34.42-40.45 34.42q-199.84 0-399.67 0 8.84 11.6 17.67 23.2c113.75-285.28 285.59-506.46 562.69-643.83-8.36-8.35-16.72-16.73-25.09-25.07q-71.33 166.74-142.64 333.48c-9.2 21.49 22.39 40.19 31.66 18.48z"
                  />
                </g>
              </g>
              <path
                id="&lt;Path&gt;"
                class="s2"
                d="m2940.29 4019.12c-218.17-254.35-148.55-632.81-148.55-632.81l-547.97-6.59-34.81 6.59c0 0 71.66 388.35-156.89 642.69 160.83 106.36 478.53 234.64 888.22-9.88z"
              />
              <g id="&lt;Group&gt;">
                <path
                  id="&lt;Path&gt;"
                  class="s0"
                  d="m3600.6 4660.8l-144.75-338.42c-85.27-41.12-170.97-75.21-254.09-116.18v775.91h426.56l-293.95-223.11z"
                />
                <g id="&lt;Group&gt;">
                  <path
                    id="&lt;Path&gt;"
                    class="s1"
                    d="m3616.43 4651.56c-34.34-80.29-68.65-160.58-102.99-240.83-13.79-32.2-27.54-64.4-41.33-96.59-8.1-18.95-54.37-29.73-70.98-37.32-63.35-28.97-127.35-56.22-190.13-86.45-12.21-5.91-27.58 1.08-27.58 15.83q0 387.96 0 775.91c0 10 8.35 18.34 18.34 18.34 142.17 0 284.39 0 426.56 0 19.81 0 22.92-23.78 9.24-34.16-97.98-74.39-195.96-148.74-293.95-223.12q-2.15 16.76-4.37 33.52 133.12-49.1 266.24-98.2c21.98-8.13 12.49-43.58-9.75-35.38q-133.11 49.1-266.23 98.2c-15.79 5.84-17.26 23.74-4.37 33.52 97.99 74.38 195.97 148.73 293.95 223.11q4.62-17.08 9.24-34.16c-142.17 0-284.39 0-426.56 0 6.13 6.12 12.21 12.21 18.34 18.33q0-387.95 0-775.91c-9.21 5.26-18.41 10.56-27.58 15.83 41.72 20.13 83.87 39.25 126.24 58.05 21.38 9.49 114.71 36.24 122.98 55.58 15.51 36.28 31.05 72.56 46.55 108.84q48.24 112.8 96.48 225.54c9.28 21.71 40.87 3.01 31.66-18.48z"
                  />
                </g>
              </g>
              <path
                id="&lt;Path&gt;"
                class="s2"
                d="m3009.56 4087.01c-25.83-21.27-48.82-44.05-69.27-67.89-409.69 244.52-727.39 116.24-888.22 9.88-19.91 22.13-42.33 43.12-67.04 62.88 130.35 107.73 511.65 346.17 1024.53-4.87z"
              />
              <path
                id="&lt;Path&gt;"
                class="s2"
                d="m3089.34 4143.96c-19.69-12.39-39.17-25.57-58.34-39.83-7.41-5.58-14.43-11.38-21.44-17.12-512.88 351.04-894.18 112.6-1024.53 4.87-5.12 4.09-10.03 8.24-15.33 12.25-23.35 17.34-47.13 33.1-71.23 47.78-35.21 21.49-71.23 40.39-107.65 58.16v772.04h291.69 835.68 283.57v-775.91c-38.1-18.84-75.67-39.04-112.42-62.24z"
              />
            </g>
            <path id="&lt;Path&gt;" class="s3" d="m3765.48 4535.89v446.22" />
            <path id="&lt;Path&gt;" class="s3" d="m1205.28 4568.19v413.92" />
          </g>
          <g id="&lt;Group&gt;">
            <g id="&lt;Group&gt;">
              <path
                id="&lt;Path&gt;"
                class="s2"
                d="m3822.71 2514.41c-8.02-93.81-46.34-172.67-155.64-147.31-20.7 4.87-44.19 18.41-67.15 35.67 14.01-76.78 24.75-155 31.99-234.07 70.47-775.49-121.77-1563.72-1121.55-1563.72h-23.1c-999.74 0-1192.02 788.23-1121.5 1563.72 7.16 79.07 17.94 157.29 31.94 234.07-22.92-17.26-46.48-30.8-67.18-35.67-109.3-25.36-147.62 53.5-155.61 147.31-14.47 169.54 98.41 327.9 261.33 410.49 27.36 13.82 84.73 28.86 143.89 35.6 185.33 359.98 487.59 601.79 918.66 579.73 431.12 22.06 733.38-219.75 918.67-579.73 59.2-6.74 116.6-21.78 143.93-35.6 162.91-82.59 275.79-240.95 261.32-410.49z"
              />
              <g id="&lt;Group&gt;">
                <g id="&lt;Group&gt;">
                  <path
                    id="&lt;Path&gt;"
                    class="s0"
                    d="m2587.93 3499.12c0 40.5-32.84 73.34-73.34 73.34h-24.46c-40.51 0-73.35-32.84-73.35-73.34v-204.64c0-40.5 32.84-73.34 73.35-73.34h24.46c40.5 0 73.34 32.84 73.34 73.34z"
                  />
                  <g id="&lt;Group&gt;">
                    <path
                      id="&lt;Path&gt;"
                      class="s1"
                      d="m2569.6 3499.12c-7.13 61.84-134.48 86.77-134.48-1.22q0-30.14 0-60.27c0-47.71 0-95.44 0-143.15 0-75.02 134.48-73.74 134.48 1.22q0 30.14 0 60.27c0 47.7 0 95.44 0 143.15 0 23.63 36.67 23.63 36.67 0 0-74.64 17.33-170.54-8.09-241.77-16.59-46.35-65.65-54.55-108.05-54.55-54.04 0-85.99 42.26-91.68 91.68-4.34 37.68 0 78.36 0 116.25 0 40.9-5.88 86.38 8.11 125.52 16.56 46.34 65.61 54.55 108.03 54.55 54.04 0 85.98-42.26 91.68-91.68 2.72-23.46-33.99-23.21-36.67 0z"
                    />
                  </g>
                </g>
                <g id="&lt;Group&gt;">
                  <path
                    id="&lt;Path&gt;"
                    class="s1"
                    d="m2371.45 2520.79c16.22 37.1 54.95 55.51 91.55 57.73 37.32 3.36 77.05-1.83 108.42-18.12 15.48-8.1 28.37-19.2 33.38-32.56 5.3-13.18 2.97-28.9-3.22-44.66-3.08-8.41-7.56-13.71-12.79-26.92-3.94-10.32-6.87-20.01-9.67-29.8-5.69-19.45-10.27-38.86-14.65-58.31-17.36-77.69-31.94-155.55-43.11-234.08-11.3-78.4-23.1-156.97-25.18-236.55 7.56 38.88 16.6 77.38 25.71 115.89l25.86 115.73 52.04 230.8 14.29 56.72c2.54 9.26 5.23 18.55 8.23 26.74 1.58 5.44 8.63 16.54 12.28 26.79 8.21 20.55 11.82 47.16 0.9 70.76-10.71 23.46-31.23 38.32-51.25 46.74-41 16.25-83.48 16.94-124.11 9.7-40.3-7.81-81.18-35.96-88.68-76.6z"
                  />
                </g>
                <g id="&lt;Group&gt;">
                  <path
                    id="&lt;Path&gt;"
                    class="s0"
                    d="m1698.64 1686.91c-18.34 24.44-6.11 48.9 24.44 58.07 55.01 15.28 106.97-42.79 152.81-61.13 33.61-12.21 67.22-21.38 97.79-27.5 27.5-6.11 73.34-9.17 94.74-30.55 64.17-67.24-76.41-79.47-116.14-79.47-48.89 3.06-94.73 12.23-134.46 36.67-24.44 12.23-45.84 27.51-67.24 42.8-9.17 9.17-42.78 39.71-36.67 36.67z"
                  />
                  <g id="&lt;Group&gt;">
                    <path
                      id="&lt;Path&gt;"
                      class="s1"
                      d="m1682.8 1677.65c-17.92 39.51-8.38 63.75 31.02 83.16 40.56 19.98 91.36-13.16 123.55-33.73 65.04-41.55 135.98-46.78 207.97-67.53 27.97-8.07 57.92-34.76 57.92-66.06 0-68.43-131.48-67.18-175.16-63.42-96.6 8.33-194.01 65.5-245.3 147.58-12.56 20.13 19.17 38.52 31.66 18.52 59.15-94.65 180.57-142.91 290.41-127.28 10.6 1.52 89.24 15.26 41.75 50.34-23.7 17.51-72.84 18.33-101.27 24.6-32.4 7.13-64.32 17.29-94.22 31.62q-16.51 9.38-32.25 19.97c-4.05 2.59-139.26 77.55-104.42 0.75 9.71-21.36-21.89-40.02-31.66-18.52z"
                    />
                  </g>
                </g>
                <g id="&lt;Group&gt;">
                  <path
                    id="&lt;Path&gt;"
                    class="s0"
                    d="m3286.49 1686.91c18.34 24.44 6.09 48.9-24.42 58.07-55.01 15.28-107.01-42.79-152.85-61.13-33.59-12.21-67.18-21.38-97.77-27.5-31.87-7.08-80.54-6.33-100.88-37.5-40.22-61.65 88.67-74.63 122.3-72.52 48.84 3.06 94.69 12.23 134.44 36.67 24.42 12.23 45.84 27.51 67.25 42.8 9.17 9.17 42.76 39.71 36.68 36.67z"
                  />
                  <g id="&lt;Group&gt;">
                    <path
                      id="&lt;Path&gt;"
                      class="s1"
                      d="m3270.66 1696.17c-23.63 34.95-50.06 39.96-79.21 15.02q-18.97-11.48-37.5-23.74c-28.36-18.38-57.62-27.67-89.85-37.32-27.33-8.18-55.44-13.09-83.59-17.4q-40.61-0.52-44.69-50.82c12.96-8.22 31.47-10.78 46.34-13.73 106.75-21.22 232.21 37.81 288.5 127.99 12.5 20 44.23 1.61 31.66-18.52-51.64-82.76-144.86-133.33-240.41-146.92-51.46-7.32-164.13-6.01-176.73 61.1-5.55 29.67 21.84 52.23 44.26 64.85 22.17 12.5 52.57 12.95 77.14 17.34 44.66 8 90.03 21.56 128.86 45.1 36.09 21.85 90.14 64.25 135.87 41.69 39.39-19.43 48.92-43.67 31.01-83.16-9.74-21.5-41.36-2.84-31.66 18.52z"
                    />
                  </g>
                </g>
                <g id="&lt;Group&gt;">
                  <path
                    id="&lt;Path&gt;"
                    class="s1"
                    d="m2771.4 2775.34c-33.98 37.11-74.2 69.44-120.19 92.83-45.73 23.64-97.37 37.85-150.03 39.29-105.74 2.65-209.17-50.25-268.12-132.12 39.58 30.98 83.2 54.26 127.96 71.45 45.02 16.47 92.17 25.57 139.33 24.03 95.17-1.4 185.42-43.55 271.05-95.48z"
                  />
                </g>
                <g id="&lt;Group&gt;">
                  <path
                    id="&lt;Path&gt;"
                    class="s1"
                    d="m1301.04 2555.6c28.78 3.15 54.21 20.16 75.75 38.03 21.81 18.27 40.29 39.79 56.65 62.74 7.95 12 15.29 23.89 21.69 36.32 6.3 13.21 12.24 25.57 16.8 38.75 9.8 25.93 17.27 51.89 24.18 79.29-20.25-19.95-35.52-43.69-49.85-66.65l-21.09-33.81c-6.97-11.35-14.2-22.56-21.83-32.98-14.73-21.85-30.74-42.83-46.93-63.75-16.83-20.41-33.09-40.86-55.37-57.94z"
                  />
                </g>
                <g id="&lt;Group&gt;">
                  <path
                    id="&lt;Path&gt;"
                    class="s1"
                    d="m3696.58 2555.6c-22.27 17.08-38.53 37.53-55.36 57.98-16.19 20.88-32.2 41.86-46.92 63.71-7.63 10.42-14.9 21.63-21.84 32.98-7.17 10.53-13.65 22.46-21.1 33.81-14.32 22.96-29.58 46.7-49.81 66.65 6.91-27.44 14.36-53.36 24.14-79.33 4.54-13.14 10.49-25.53 16.83-38.71 6.37-12.46 13.71-24.35 21.66-36.32 16.4-22.92 34.85-44.47 56.66-62.74 21.56-17.87 46.99-34.88 75.74-38.03z"
                  />
                </g>
                <path
                  id="&lt;Path&gt;"
                  class="s1"
                  d="m2002.29 2254.58c-37.46 37.45-98.2 37.38-135.69-0.08-37.5-37.46-37.5-98.19-0.04-135.65 37.46-37.46 98.2-37.46 135.66 0 37.53 37.53 37.53 98.27 0.07 135.73z"
                />
                <path
                  id="&lt;Path&gt;"
                  class="s1"
                  d="m2996.23 2254.58c37.46 37.45 98.2 37.38 135.66-0.08 37.53-37.46 37.53-98.19 0.07-135.65-37.46-37.46-98.2-37.46-135.69 0-37.5 37.53-37.5 98.27-0.04 135.73z"
                />
              </g>
            </g>
            <g id="&lt;Group&gt;">
              <path
                id="&lt;Path&gt;"
                class="s0"
                d="m3857.02 641.15c-8.74-15.33-18.19-30.44-28.43-45.27-92.11-133.29-223.98-199.62-377.79-231.78-184.65-38.61-355.51-105.93-520.71-196.97-77.07-42.47-153.1-88.31-236.26-117.03-233-80.36-636.75-5.88-718.97 267.73-257.46-7.66-566.49 160.15-689.61 331.7-155.57 216.73-221.54 492.71-173.26 756.43 36.81 201.05 92.93 395.66 137.74 594.35 28.64 126.77 57.37 365.71 168.39 442.62 77.99 110.38 101.92-770.38 124.05-955.96 17.8-149.48 62.39-260.86 122.62-400.1 85.99-198.76 305.91-310.64 497.73-314.14 5.15-0.08 9.52 0.49 14.39 0.64 7.34 116.96 23.64 198.54 117.68 305.19 138.7 157.15 334.42 112.06 533.18 96.09-134.87-33.31-275.08-30.41-347.24-178.96 141.17 176.13 487.62 233.93 742.04 173.98-69.98-15.69-247.18-128.57-313.08-165.67 227.34-39.47 579.52 139.24 608.85 447.8 0.11 1.5 0.18 3.08 0.33 4.66 0.64 8.02 1.21 16.11 1.43 24.35 0.03 0.57 0.07 1.15 0.07 1.65 3.72 146.9 5.73 318.08 16.29 486.47 6.49 215.67 15.23 418.51 35.56 494.56-7.87-29.42 123.7-165.01 142.11-190.65 148.16-206.35 169.07-526.52 195.39-769.97 30.7-283.78 94.19-604.08-52.5-861.72z"
              />
              <g id="&lt;Group&gt;">
                <path
                  id="&lt;Path&gt;"
                  class="s1"
                  d="m3872.85 631.89c-120.47-201.34-299.21-252.87-513.69-308.56-136.2-35.37-266.16-91.23-390.61-156.21-106.33-55.53-207-121.73-324.93-150.15-156.8-37.8-332.29-11.33-475.82 58.89-65.67 32.11-120.82 80.78-163.83 139.37-11.92 16.24-33.27 84.25-55.92 84.09-57.23-0.36-114.73 10.67-170.18 23.55-192.72 44.72-388.49 158.61-508.45 317.4-143.64 190.15-203.84 438.98-187.94 674.03 17.1 252.98 112.95 500.68 162.5 748.3 25.62 128.14 48.41 329.59 174.22 404.86 60.33 36.1 75.93-151.07 78.85-172.25 22.67-164.65 31.23-331.43 41.52-497.19 10.73-172.56 14.47-343.64 66.68-510.06 43.19-137.7 99.04-271.94 209.88-367.99 94.92-82.27 236.11-133.89 361.78-128.27q-9.17-9.16-18.33-18.33c10.9 152.67 63.06 282.9 189.53 376.67 133.22 98.76 328.67 56.02 479.66 42.94 19.55-1.7 26.22-31.05 4.87-36-131.72-30.63-264.4-38.45-336.28-170.54q-14.4 11.11-28.79 22.21c176.27 206.07 511.79 232.99 759.87 178.69 18.16-3.95 16.9-30.69 0-35.34-110.34-30.48-210.26-107.48-308.71-163.83q-2.16 16.76-4.36 33.5c275.5-40.5 570.88 178.31 587.39 459.14 10.24 173.89 12.11 349.76 17.48 523.94 4.69 152.06-0.29 314.59 35.09 463.61 4.87 20.52 35.74 15.51 36.03-4.87 0.65-46.36 76.57-108.23 105.65-141.21 41.72-47.33 72.91-98.86 99.92-156.09 69.76-147.85 92.68-315.61 111.94-476.29 40.8-340.41 135.95-739.74-35.02-1058.01-11.17-20.84-42.87-2.31-31.66 18.52 97.02 180.58 98.27 381.34 80.8 580.66-15.76 179.33-36.71 359.93-60.88 538.34-22.71 167.46-58.06 359.89-164.67 496.5-40.58 52-141.71 125.63-142.75 197.58 12-1.61 23.99-3.26 36.03-4.87-44.88-188.91-31.16-398.04-40.33-590.84-7.88-166.2 15.33-350.28-32.08-511.6-72.06-245.03-367.55-405.91-612.69-369.85-16.33 2.4-17.01 26.29-4.37 33.5 101.5 58.11 203.49 136.05 317.44 167.51q0-17.67 0-35.34c-236.07 51.64-556.59 26.66-724.19-169.27-13.99-16.37-38.43 4.53-28.8 22.22 77.18 141.85 214.41 153.96 358.2 187.37 1.61-12 3.26-23.99 4.87-36.01-131.97 11.42-267.56 36.57-396.71-4.87-159.87-51.28-225.05-227.37-235.81-378.07-0.73-10.32-7.81-17.87-18.34-18.34-415.26-18.58-621.54 403.16-655.81 758.23-26.56 275.04-22.53 553.85-67.66 827.02-3.54 21.48-8.05 42.79-13.73 63.81-4.44 16.44-6.07 29.08-8.63 25.88-34.83-43.69-65.31-72.88-87.71-126.9-18.35-44.25-29.68-91.56-40.73-138.03-57.61-242.39-118.04-486.15-166.66-730.5-54.43-273.48 6.4-547.29 165.1-775.75 140.21-201.84 434.62-324.18 673.78-322.62 8.49 0.05 15.07-5.71 17.67-13.47 108.87-324.33 558.27-332.14 812.46-203.41 180.28 91.3 348.28 184.47 544.42 239.4 91.76 25.7 182.69 39.79 269.75 80.63 95.87 45.01 168.31 121.32 222.03 211.09 12.11 20.26 43.84 1.82 31.66-18.52z"
                />
              </g>
            </g>
          </g>
        </g>
      </svg>