<svg version="1.2" xmlns="http://www.w3.org/2000/svg" viewBox="0 0 5000 5000" width="5000" height="5000">
	<style>
		.s0 { fill: #757575;stroke: #000000;stroke-linecap: round;stroke-linejoin: round } 
		.s1 { fill: #ffffff;stroke: #000000;stroke-linecap: round;stroke-linejoin: round } 
		.s2 { fill: #000000;stroke: #000000;stroke-miterlimit:10 } 
		.s3 { fill: #000000 } 
		.s4 { fill: #ffffff } 
	</style>
	<g id="Layer 1">
		<g id="&lt;Group&gt;">
			<g id="&lt;Group&gt;">
				<g id="&lt;Group&gt;">
					<path id="&lt;Path&gt;" class="s0" d="m3044.73 4122.19c-44.75-33.36-81.44-71.15-111.92-111.35-191.22-252.41-126.48-603.93-126.48-603.93l-546.1-6.62-34.69 6.62c0 0 64.39 349.74-125.05 601.98-22.69 30.27-48.99 59.14-79.51 85.83l140.15 81.55 380.25 221.36 373.23-200.11 134.72-72.23c-1.53-1.11-3.1-1.98-4.6-3.1z"/>
					<path id="&lt;Path&gt;" class="s1" d="m3049.33 4125.29l-134.72 72.23-373.23 200.11-380.25-221.36-140.15-81.55c-10.74 9.43-21.98 18.61-33.87 27.47-10.45 7.78-21.23 14.38-31.83 21.57l124.48 72.46 461.62 268.72 456.92-244.98 123.98-66.49c-24.66-14.79-49.07-30.62-72.95-48.18z"/>
					<path id="&lt;Path&gt;" class="s1" d="m2079.76 4216.22l-124.48-72.46c-165.27 112.17-349.21 158.69-524.47 268.37-164.27 102.84-320.73 261.96-446.36 584.97h230.51c98.58-342.72 557.49-625.65 864.8-780.88z"/>
					<path id="&lt;Path&gt;" class="s1" d="m3601.04 4412.13c-159.21-99.66-325.69-146.82-478.76-238.66l-123.98 66.49c305.31 159.38 724.86 431.24 818.58 757.14h230.54c-125.62-323.01-282.08-482.13-446.38-584.97z"/>
					<path id="&lt;Path&gt;" class="s2" d="m2998.3 4239.96l-456.92 244.98-461.62-268.72c-307.31 155.23-766.22 438.16-864.8 780.88h160.64 723.97 832.74 723.97 160.6c-93.72-325.9-513.27-597.76-818.58-757.14z"/>
				</g>
				<path id="&lt;Path&gt;" class="s1" d="m3318.81 4917.32c-108.58 0-196.35-37.09-196.35-82.97 0-45.88 87.77-82.96 196.35-82.96 108.59 0 196.36 37.08 196.36 82.96 0 45.88-87.77 82.97-196.36 82.97z"/>
			</g>
			<g id="&lt;Group&gt;">
				<path id="&lt;Path&gt;" class="s0" d="m3835.22 2538.03c-7.96-93.49-46.14-172.07-155.1-146.81-20.59 4.78-44.04 18.33-66.88 35.5 13.92-76.47 24.66-154.39 31.84-233.24 70.23-772.76-121.34-1558.31-1117.61-1558.31h-23.06c-996.27 0-1187.84 785.55-1117.61 1558.31 7.18 78.85 17.92 156.77 31.84 233.24-22.84-17.17-46.29-30.72-66.92-35.5-108.92-25.26-147.14 53.32-155.1 146.81-14.38 168.94 98.11 326.79 260.42 409.05 27.26 13.8 84.44 28.73 143.43 35.44 184.65 358.79 485.89 599.72 915.47 577.74 429.58 21.98 730.78-218.95 915.47-577.74 58.99-6.71 116.16-21.64 143.39-35.44 162.35-82.26 274.84-240.11 260.42-409.05z"/>
				<g id="&lt;Group&gt;">
					<g id="&lt;Group&gt;">
						<path id="&lt;Path&gt;" class="s3" d="m2528.07 3352.07l-105.47-296.92h210.95z"/>
					</g>
					<g id="&lt;Group&gt;">
						<path id="&lt;Path&gt;" class="s3" d="m1684.83 1767.72c11.87-49.09 34.86-87.82 66.46-121.61 31.77-33.71 76.85-59.47 119.98-72.02 47.96-13.63 89.59-15.08 134.04-10.05 43.44 6.07 88.38 18.31 128.7 50.02-41.01 29.25-77.34 48.25-114.56 64.06-36.16 15.22-74.99 27.21-105.3 35.69l-101.14 28.78c-36.83 10.17-77.5 22.34-128.18 25.13z"/>
					</g>
					<path id="&lt;Path&gt;" class="s4" d="m2787.56 2798.05c-310.81 255.45-536.46 0-536.46 0z"/>
					<g id="&lt;Group&gt;">
						<path id="&lt;Path&gt;" class="s3" d="m3347.01 1767.72c-50.68-2.81-91.33-14.97-128.18-25.13l-101.15-28.78c-30.3-8.5-69.13-20.47-105.28-35.69-37.23-15.81-73.56-34.81-114.56-64.06 40.29-31.71 85.25-43.95 128.69-50.02 44.45-5.03 86.08-3.6 134.04 10.05 43.12 12.55 88.21 38.29 119.99 72 31.62 33.81 54.6 72.54 66.45 121.63z"/>
					</g>
					<g id="&lt;Group&gt;">
						<path id="&lt;Path&gt;" class="s3" d="m1322.31 2579.07c28.68 3.14 54.02 20.09 75.49 37.88 21.73 18.2 40.14 39.67 56.45 62.54 7.91 11.94 15.22 23.76 21.61 36.15 6.3 13.16 12.23 25.49 16.76 38.6 9.78 25.86 17.2 51.71 24.09 79.03-20.17-19.88-35.39-43.52-49.68-66.41-7.4-11.3-13.88-23.18-21-33.67-6.96-11.28-14.19-22.47-21.79-32.85-14.67-21.81-30.62-42.71-46.75-63.53-16.78-20.34-32.98-40.7-55.18-57.74z"/>
					</g>
					<g id="&lt;Group&gt;">
						<path id="&lt;Path&gt;" class="s3" d="m3709.53 2579.07c-22.2 17.04-38.38 37.4-55.18 57.76-16.11 20.8-32.06 41.72-46.73 63.51-7.58 10.38-14.83 21.57-21.77 32.85-7.12 10.51-13.6 22.37-21.02 33.67-14.27 22.89-29.49 46.53-49.66 66.41 6.89-27.32 14.31-53.17 24.09-79.03 4.53-13.09 10.46-25.44 16.76-38.58 6.38-12.4 13.68-24.21 21.6-36.15 16.31-22.87 34.71-44.34 56.44-62.56 21.47-17.79 46.79-34.74 75.47-37.88z"/>
					</g>
					<path id="&lt;Path&gt;" class="s3" d="m2021.12 2279.04c-37.33 37.33-97.85 37.31-135.18-0.04-37.37-37.35-37.41-97.87-0.08-135.2 37.33-37.33 97.86-37.31 135.23 0.03 37.36 37.35 37.36 97.88 0.03 135.21z"/>
					<path id="&lt;Path&gt;" class="s3" d="m3011.61 2279.04c37.33 37.33 97.86 37.31 135.22-0.04 37.37-37.35 37.37-97.87 0.04-135.2-37.33-37.33-97.86-37.31-135.19 0.03-37.36 37.35-37.4 97.88-0.07 135.21z"/>
					<g id="&lt;Group&gt;">
						<path id="&lt;Path&gt;" class="s3" d="m2521.22 2168.3c15.85 57.47 59.87 94.77 103.17 131.79 22.17 18.45 44.35 38.03 64.78 60.74 19.52 22.17 38.86 51.04 43.58 85.12 5.08 34.65-9.75 70.07-31.41 93.56-22.04 23.73-48.45 40.66-76.23 52.65-55.19 23.93-116.45 34.2-174.27 23.54 58-3.62 112.81-23.12 161.58-49.07 47.34-25.96 91.95-68.18 84.1-115.92-2.82-23.98-16.2-46.05-33.76-67.69-16.9-21.63-37.69-41.1-57.76-62.17-20.34-20.76-40.7-42.88-56.76-68.38-15.47-25.73-26.68-54.76-27.02-84.17z"/>
					</g>
				</g>
			</g>
			<g id="&lt;Group&gt;">
				<path id="&lt;Path&gt;" class="s3" d="m1406.07 292.05c5.25 16.65 14.21 31.99 26.95 44.31-57.64 7.9-116.06-8.46-174.12-4.88-58.07 3.57-122.99 38.92-126.52 96.99-2.89 47.46 36.15 86.63 75.59 113.2-44.79-25.57-107.78-18.81-141.11 20.52-33.37 39.36-26.09 108.35 18.17 134.81q-71.74 3.44-143.47 6.87c-12.78 0.61-26.84 1.75-35.94 10.78-8.71 8.65-10.24 22.02-10.99 34.28-2.5 41.31-1.25 84.42 16.95 121.61 23.23 47.44 87.97 75.24 133.69 96.25-71.56 37.92-150.96 82.92-183.12 162.66-35.94 89.22 9.46 128.85 95.82 122.68-170.15 4.73-233.25 369.62-46.67 363.89-136.66 98.02-104.78 331.69 88.07 313.59-70.91-4.03-98.35 64.65-100.17 126.02-3.54 120.02 139.61 125.96 231.22 92.64-54.93 18.62-12.49 78.77 15.35 105.32 49.6 47.27 103.63 47.47 169.05 45.57-136.26 30 134.37 218.06 180.47 242.11 20.21-69.25 12.96-176.37 0.58-245.89-7.82-43.93-57.89-127.01-44.22-166.98 2.75-8.07 62.27-41.22 72.41-53.87 28.37-35.39 41.9-91.42 47.82-134.41 12.56-90.94-13.28-162.86-60.67-236 74.59-53.85 184.19-244.14 101.11-328.03 107.81-68.34 190.61-121.21 265.73-231.28 25.52-37.36 67.27-84.29 53.25-129.22 37.93 109.78 238.97-14.65 281.18-74.45-36.43 38.14 46.9 108.55 103.18 109.3 67.95 0.89 121.12-49.75 157.7-95.54-17.41 162.15 310.2 58.53 382.19 17.77-22.95 124.23 144.93 88.15 205.45 79.62 4.43 168.4 47.86 192.9 198.79 235.35-14.56 144.45 103.31 145.11 205.88 190.91-25.87 128.94-57.56 157.69 14.6 286.33 19.62 35.01 27.16 17.97 28.3 54.49 0.43 13.37-31.16 62.9-36.23 77.59-13.81 40.13-27.15 90.88-24.69 133.31 5.42 92.58 83.87 126.86 100.35 199.72 14.14 62.57-84.22 258.11 18.27 292.3 51.08-66.45 112.82-147.18 145.33-224.5 42.86-101.89 11.49-70.73 103.14-120.09 71.12-38.31 71.27-117.68 104.6-169.59 49.96-77.8 129.69-123.84 146.71-227.81 10.39-63.53-13.06-110.21-36.36-166.22 103.24-59.82 195.67-132.35 166.77-272.82-14.64-71.16-67.27-132.96-113.78-185.43 1.75 1.96-61.42-56.07-63.41-61.82-24.59-70.62 21.84-148.39-10.03-229.69-23.48-59.81-104.64-116.91-116.03-171.64-3.35-16.09 22.09-56.53 23.1-74.48 3.17-57.15-26.27-100.14-60.35-142.39-53.29-66.06-132.76-74.91-184.44-126.55-45.14-45.1-22.73-91.67-95.11-135.78-50.32-30.69-186.65-79.92-244.21-38.72-64.92-65.88-144.08-117.48-235.58-140.31-59.17-14.76-145.11-24.18-206.53-8.49-12.17 3.1-67.34 37.72-79.62 37.4-58.67-1.59-101.49-64.37-179.72-59.97-67.81 3.8-137.9 38.89-176.41 95.8-132.87-112.95-297.32-137.6-440.85-16.72 22.77-19.18-133.59-70.16-146.39-72.16-65.99-10.28-150.47 7.67-213.71 25.05-13.09 3.61-26.84 8.07-35.86 18.24-27.66 31.05 8.74 78.07 7.88 119.62-7.17-11.83-18.91-20.23-31.26-26.53-53.14-27.21-124.44-17.01-164.17 27.55-27.97 31.36-36.32 78.28-23.91 117.81z"/>
			</g>
		</g>
	</g>
</svg>