<svg
        version="1.2"
        xmlns="http://www.w3.org/2000/svg"
        viewBox="0 0 5000 5000"
        width="5000"
        height="5000"
      >
        <style>
          .s0 {
            fill: #757575;
          }
          .s1 {
            fill: #000000;
          }
          .s2 {
            fill: #ffffff;
            stroke: #000000;
            stroke-width: 5px;
            stroke-linecap: round;
            stroke-linejoin: round;
          }
          .s3 {
            fill: #000000;
            stroke: #000000;
            stroke-miterlimit: 10;
          }
          .s4 {
            fill: #ffeef7;
          }
        </style>
        <g id="Layer 1"></g>
        <g id="&lt;Group&gt;">
          <g id="&lt;Group&gt;">
            <path
              id="&lt;Path&gt;"
              class="s0"
              d="m4158.67 3599.82c1.7-10.46 96.28-59.34 109.71-69.99 39.68-31.27 75.9-67.09 108.55-105.54 65.4-76.98 117.82-166.26 150.25-261.96 31.81-93.65 44.93-195.1 26.56-292.92-28.26-150.87-176.96-234.17-116.89-401.13 45.31-125.81-61.69-190.24-92.73-300.14-34.82-123.26 52.19-238.68 39.84-361.33-8.8-87.32-68.71-160.35-131.87-221.19-49.03-47.18-103.07-92.5-131.95-154.1-48.02-102.38-15.59-221.9-9.8-334.85 8.11-158.74-40.77-319.79-135.81-447.26-75.97-101.83-178.27-180.43-279.18-257.71-308.51-236.1-612.28-364.26-1004.95-370.44-232.9-3.71-467.24 1.31-696.33 43.54-322.97 59.61-585.59 197.34-824.47 417.69-117.95 108.86-232.81 234.86-276.22 393.37-36.19 132.1 22.31 274.78-6.31 399.58-28.15 122.72-168.85 130.25-248.7 217.3-74.92 81.68-91.92 248.68-48.3 347.97 34.2 77.98 131.68 101.79 153.6 176.26-2.68 2.24-5.21 4.48-7.91 6.8-123.57 104.61-312.88 199.34-294.23 383.09 14.28 140.52 132.52 206.14 173.75 326.2 41.5 120.83-48.29 143.14-110.67 224.75-103.13 134.88-75.63 320.17 9.95 457.99 49.84 80.29 192.21 232.58 286.55 120.75 86.13 143.22 232.92 242.08 400.59 237.44 5.72-79.09-57.25-167.88-65.33-251.42 92.32 189.54 394.33 279.34 582.71 307.83-5.29-26.45-10.32-69.1-28.58-96.82 156.15 81.14 270.68 287.67 468.48 178.77 44.61-24.59 89.22-53.35 133.21-85.01 100.75 130.45 255.96 171.37 458.89 39.53 50.07-32.54 264.24-275.66 320.41-269.95 46.9 4.79 95.23 140.44 145.69 171.32 146.27 89.64 612.67-74.04 592.21-313.38 33.2 123.92-29.5 247.45-37.37 272.31 71.72-57.75 146-105.66 210.08-180.12 66.7-77.6 116.5-162.17 144.76-246.91 43 81.3 47.02 205.21 31.81 299.68z"
            />
            <g id="&lt;Group&gt;">
              <path
                id="&lt;Path&gt;"
                class="s1"
                d="m4172.65 3613.79c19.45-24.78 59.87-39.53 86.62-54.97 34.32-19.8 62.62-48.33 90.76-75.82 89.6-87.47 153.6-198.57 196.22-315.42 38.1-104.54 46.09-221.27 20.38-329.36-28.84-121.3-142.02-200.97-119.21-336.05 16.22-96.2 23.05-143.37-29.68-231.31-42.89-71.45-69.49-131.87-56.94-218.68 8.99-62.39 37.21-121.33 41.84-184.56 7.45-101.34-31.03-177.77-95.46-253.59-37.99-44.7-84.47-81.91-124.46-124.84-76.16-81.8-72.23-186.81-62.11-289.72 25.44-259.88-35.87-480.03-224.09-666.95-172.91-171.71-399.24-323.49-624.99-414.67-248.41-100.34-499.76-119.25-765.18-116.93-278.79 2.43-559.61 31.07-821.74 130.63-207.88 78.94-390.99 207.92-552.51 358.97-174.84 163.53-286.65 343.34-264.47 587.85 5.89 65.05 11.6 126.81 0.38 191.82-11.21 64.97-73.63 98.21-125.69 126.74-67.94 37.21-133.1 77.97-163.17 153.33-32.35 81.06-39.07 163.83-23.13 249.45 6.9 37.06 24.42 66.98 47.08 96.09 8.57 11 126.56 107.24 118.69 113.99-123.78 106.27-291.07 188.89-301.3 371.4-4.83 86.2 47.33 162.21 96.52 227.3 40.85 54.04 81.09 107.7 89.05 177.5 6.5 57.05-65.07 102.91-99.35 138.58-132.8 138.12-97.01 350.94-9.21 501.19 61.32 104.96 205.66 235.09 317.59 124.76q-15.52-1.98-31.04-4.01c94.78 148.62 238.28 245.75 417.65 247.25 10.64 0.08 19.96-9.07 19.77-19.77-1.59-90.6-51.67-168.38-66.05-256.67-12.03 5.06-24.07 10.16-36.11 15.21 110.28 205.84 380.26 282.73 594.52 316.93 15.42 2.48 27.22-8.57 24.3-24.31-6.68-36.29-14.24-68.52-30.57-101.53-9.01 8.99-18.03 18.03-27.04 27.02 107.43 60.22 187.61 161.48 305.66 203.13 50.08 17.64 103.36 8.11 151.59-9.42 29.9-10.88 57.64-29.99 84.68-46.36 56.32-34.09 58.38-46.98 107.53-1.89 93.98 86.16 221.6 82.73 333.82 39.68 104.3-40.03 173.17-120.82 251.15-196.53 40.5-39.33 81.76-79.21 128.74-110.79 49.38-33.16 106.55 99.68 132.18 127.93 55.98 61.61 145.58 63.23 223.09 51.07 174.6-27.37 437.76-139.93 430.19-352.6-12.93 1.74-25.86 3.52-38.83 5.25 19.07 94.62-5.02 174.65-37.37 261.81-7.68 20.73 19.34 30.03 33.04 19.23 156.81-123.53 290.15-242.86 359.94-435.76q-18.06 2.39-36.13 4.71c41.07 89.49 42.89 188.5 29.8 284.47-3.4 24.9 34.71 35.67 38.14 10.5 14.63-107.7 12.12-214.87-33.82-314.89-7.8-17.02-30.92-9.65-36.13 4.71-67.24 185.95-199.04 299.56-349.74 418.31q16.49 9.61 33.04 19.22c35.28-95.19 57.87-181.01 37.37-282.81-4.44-22-39.61-16.83-38.84 5.25 6.18 173.29-200.54 266.48-341.06 302.96-68.36 17.76-170.62 33.43-231.11-14.4-49.18-38.91-64.28-139.51-127.9-161.16-83.42-28.46-200.46 126.69-249.6 175.06-151.91 149.51-369.78 254.94-533.79 56.05-5.25-6.37-17.25-7.8-23.95-3.09-107.8 75.94-212.8 150.32-343.09 79.37-86.41-47.02-152.41-124.8-238.65-173.14-18.02-10.11-35.64 9.62-27.04 27.03 15.17 30.69 20.56 59.37 26.6 92.11q12.14-12.16 24.3-24.32c-204.3-32.58-465.69-102.38-570.9-298.72-11.33-21.19-39.51-5.56-36.11 15.21 13.74 84.47 63.09 159.59 64.62 246.17 6.58-6.6 13.18-13.16 19.76-19.76-165.34-1.39-296.33-90.99-383.52-227.64-6.85-10.77-21.69-13.2-31.04-4.02-89.73 88.44-193.88-30.41-245.11-100.94-58.19-80.11-84.91-180.51-83.67-278.41 1.23-99.09 56.9-174.68 125.86-239.11 36.49-34.12 57.78-68.06 61.37-118.12 3.91-54.44-34.46-113-63.22-155.5-55.07-81.34-117.16-144.95-122.35-249.3-8.11-162.67 192.9-260.34 297.63-350.25 4.75-4.09 7.55-13.27 5.08-19.22-38.47-92.49-140.66-120.52-168.58-222.51-42.31-154.53 36.69-286.67 168.13-358.16 67.48-36.71 120.56-74.47 143.84-150.36 42.75-139.28-28.07-287.75 15.94-430.85 81.24-264.28 380.55-478.68 611.18-605.26 264.3-145.07 565.43-188.96 862.71-201.47 285.64-12.04 567.53-1.12 837.21 101.6 259.33 98.83 525.31 281.61 706.05 491.46 101.84 118.24 149.16 275.01 152.21 428.73 2.44 121.21-50.49 262.19 11.66 376.57 56.75 104.46 161.44 168 225.99 267.18 87.85 134.92-20.43 285.04-11.01 428.84 3.13 47.64 28.88 92.34 52.58 132.25 20 33.74 39.61 64.39 52.38 101.99 16.57 48.84-10.22 99.22-18.29 147.01-19.07 112.95 75 208.84 115.5 305.23 73.81 175.49-19.11 393.13-118.79 537.28-41.26 59.68-99.05 125.77-162.09 163.45-29.92 17.83-72.69 33.12-94.66 61.15-15.55 19.8 12.24 47.98 27.96 27.94z"
              />
            </g>
          </g>
          <g id="&lt;Group&gt;">
            <path
              id="&lt;Path&gt;"
              class="s2"
              d="m1054.27 4573.04c103.85 35.68 231.2 64.63 375.71 87.4 12.63-126.46 22.56-253 23.98-379.39-137.53 65.01-274.42 145.07-399.69 291.99z"
            />
            <g id="&lt;Group&gt;">
              <path
                id="&lt;Path&gt;"
                class="s3"
                d="m1617.42 4685.38c0-0.04 0-0.04 0-0.08-16.71-1.85-32.93-3.94-49.29-5.94 16.42 2 32.52 4.17 49.29 6.02z"
              />
              <path
                id="&lt;Path&gt;"
                class="s3"
                d="m1523.84 4673.99c-32-4.24-63.34-8.76-93.84-13.55 30.52 4.79 61.84 9.31 93.84 13.55z"
              />
              <path
                id="&lt;Compound Path&gt;"
                class="s3"
                d="m3911.92 4610.95c-127.85 19.61-260.11 36.79-394.72 51.46-12.55-125.27-22.39-250.57-24.05-375.72-60.68-29.11-121.56-55.13-181.71-82.15 0 148.93 8.77 313.92 17.88 476.59-599.28 54.12-1226.35 58.29-1711.9 4.17 0 0.04 0 0.04 0 0.08-16.77-1.85-32.87-4.02-49.29-6.02-14.75-1.78-29.83-3.48-44.29-5.37-32-4.24-63.32-8.76-93.84-13.55 30.5 4.79 61.84 9.31 93.84 13.55 14.46 1.89 29.54 3.59 44.29 5.37 16.36 2 32.58 4.09 49.29 5.94 9.28-165.91 18.34-334.5 18.14-486.01-60.04 27.17-120.88 53.08-181.6 81.76-1.42 126.39-11.35 252.93-23.98 379.39-144.51-22.77-271.86-51.72-375.71-87.4-88.05 103.31-170.39 239.58-243.13 426.65h1206.17 900.81 1206.19c-64.23-165.15-135.96-290.53-212.39-388.74zm-582.53 70.18c62.93-5.71 125.54-11.93 187.7-18.68-62.16 6.75-124.77 12.97-187.7 18.68z"
              />
            </g>
            <path
              id="&lt;Path&gt;"
              class="s2"
              d="m3911.92 4610.95c-129.94-166.92-273.85-254.78-418.77-324.26 1.66 125.15 11.5 250.45 24.05 375.72 134.61-14.67 266.87-31.85 394.72-51.46z"
            />
            <path
              id="&lt;Path&gt;"
              class="s2"
              d="m3039.72 4053.29c-352.33-262.5-257.91-773.69-257.91-773.69l-590.69-7.17-37.52 7.17c0 0 94.4 511.19-257.89 773.69-82.8 61.69-170.57 105.46-260.15 146 0.2 151.55-8.86 320.17-18.14 486.09 485.55 54.12 1112.7 49.87 1711.9-4.25-9.11-162.67-17.88-327.66-17.88-476.59-93.61-42.08-185.37-86.9-271.72-151.25z"
            />
          </g>
          <g id="&lt;Group&gt;">
            <g id="&lt;Group&gt;">
              <path
                id="&lt;Path&gt;"
                class="s2"
                d="m3894.78 2339.77c-8.65-101.14-49.95-186.15-167.77-158.81-22.31 5.17-47.64 19.8-72.35 38.37 15.06-82.69 26.64-167 34.44-252.31 75.97-835.84-131.29-1685.57-1208.94-1685.57h-24.9c-1077.66 0-1284.9 849.73-1208.91 1685.57 7.74 85.31 19.36 169.62 34.43 252.31-24.71-18.57-50.07-33.2-72.38-38.37-117.82-27.34-159.14 57.67-167.77 158.81-15.58 182.75 106.1 353.45 281.71 442.43 29.45 14.94 91.31 31.08 155.1 38.33 199.76 388.12 525.59 648.73 990.25 624.91 464.71 23.82 790.52-236.79 990.26-624.91 63.8-7.25 125.65-23.39 155.1-38.33 175.65-88.98 297.32-259.68 281.73-442.43z"
              />
              <g id="&lt;Group&gt;">
                <g id="&lt;Group&gt;">
                  <path
                    id="&lt;Path&gt;"
                    class="s1"
                    d="m1568.72 1506.48c23.28-40.65 53.08-75.12 88.58-105.43 35.65-30.22 80.25-53.23 124.7-66.2 47.1-13.36 91.38-17.76 137.22-17.8 45.3 0.82 91.57 5.37 135.36 23.28-44.16 15.25-85.81 27.1-127.73 38.45l-121.67 31.62c-39.93 11.77-76.37 25.09-114.49 42.85-38.54 17.21-77.59 37.79-121.97 53.23z"
                  />
                </g>
                <path
                  id="&lt;Path&gt;"
                  class="s2"
                  d="m2761.5 2700.09c-336.19 407.65-580.26 0-580.26 0z"
                />
                <path
                  id="&lt;Path&gt;"
                  class="s4"
                  d="m1745.93 2547.3c-131.1 0-237.08-67.93-237.08-151.96 0-84.04 105.98-151.96 237.08-151.96 131.11 0 237.08 67.92 237.08 151.96 0 84.03-105.97 151.96-237.08 151.96z"
                />
                <g id="&lt;Group&gt;">
                  <path
                    id="&lt;Path&gt;"
                    class="s1"
                    d="m3366.69 1506.48c-44.4-15.44-83.43-36.02-121.95-53.23-38.14-17.76-74.54-31.08-114.54-42.82l-121.64-31.65c-41.92-11.35-83.57-23.2-127.73-38.45 43.77-17.91 90.06-22.46 135.38-23.28 45.82 0.04 90.1 4.44 137.19 17.8 44.44 12.97 89.06 35.98 124.69 66.2 35.52 30.31 65.32 64.78 88.6 105.43z"
                  />
                </g>
                <path
                  id="&lt;Path&gt;"
                  class="s4"
                  d="m3189.48 2547.3c-131.11 0-237.08-67.93-237.08-151.96 0-84.04 105.97-151.96 237.08-151.96 131.1 0 237.08 67.92 237.08 151.96 0 84.03-105.98 151.96-237.08 151.96z"
                />
                <g id="&lt;Group&gt;">
                  <path
                    id="&lt;Path&gt;"
                    class="s1"
                    d="m1176.61 2384.17c31.02 3.39 58.43 21.73 81.65 40.95 23.5 19.69 43.4 42.93 61.05 67.67 8.57 12.9 16.48 25.71 23.37 39.11 6.79 14.2 13.2 27.56 18.1 41.73 10.58 27.95 18.63 55.94 26.08 85.46-21.83-21.5-38.29-47.05-53.73-71.8l-22.72-36.44c-7.53-12.23-15.33-24.32-23.55-35.55-15.88-23.55-33.14-46.17-50.57-68.68-18.14-22.04-35.67-44.04-59.68-62.45z"
                  />
                </g>
                <g id="&lt;Group&gt;">
                  <path
                    id="&lt;Path&gt;"
                    class="s1"
                    d="m3758.82 2384.17c-24.01 18.41-41.54 40.41-59.68 62.45-17.45 22.51-34.71 45.13-50.57 68.72-8.19 11.23-16.02 23.32-23.55 35.51-7.72 11.35-14.71 24.21-22.74 36.44-15.44 24.75-31.88 50.3-53.73 71.8 7.45-29.52 15.48-57.51 26.09-85.46 4.91-14.17 11.31-27.53 18.11-41.73 6.91-13.44 14.82-26.21 23.39-39.11 17.64-24.74 37.52-47.94 61.03-67.67 23.24-19.22 50.65-37.56 81.65-40.95z"
                  />
                </g>
                <path
                  id="&lt;Path&gt;"
                  class="s1"
                  d="m1932.48 2059.59c-40.38 40.38-105.85 40.38-146.25 0-40.41-40.42-40.41-105.93-0.04-146.31 40.38-40.38 105.85-40.3 146.25 0.08 40.4 40.38 40.42 105.85 0.04 146.23z"
                />
                <path
                  id="&lt;Path&gt;"
                  class="s1"
                  d="m3003.9 2059.59c40.37 40.38 105.84 40.38 146.22 0 40.42-40.42 40.46-105.93 0.08-146.31-40.38-40.38-105.85-40.3-146.27 0.08-40.41 40.38-40.41 105.85-0.03 146.23z"
                />
                <g id="&lt;Group&gt;">
                  <path
                    id="&lt;Path&gt;"
                    class="s1"
                    d="m2395 2224.23c25.29-22.23 51.54-42.62 84.43-56.32 8.2-3.47 17.16-6.33 27.41-7.57 5.77-0.5 9.38-0.96 18.49 0.54 4.05 1.01 7.41 1.39 13.78 3.98 21.58 8.18 36.6 28.57 42.23 47.79 10.46 39.3 2.47 74.27-7.72 106.66-10.8 32.35-26.13 62.61-46.86 89.37 5.63-33.28 12.23-65.09 16.87-96.51 4.01-30.92 7.6-63.35-0.04-87.82-3.17-12.28-10-20.38-18.92-25.06-1.04-1.08-5.71-2.62-9.49-3.93 0.98 0.3-3.58-0.74-6.01-0.55-6.08 0.2-13.24 0.89-20.63 2.44-29.72 6.41-60.68 19.1-93.54 26.98z"
                  />
                </g>
              </g>
            </g>
          </g>
          <g id="&lt;Group&gt;">
            <path
              id="&lt;Path&gt;"
              class="s0"
              d="m1264.43 2213.81c0 0 217.61-443.44 181.3-790.56 0 0 1750.29-44.62 1883.59-662.51 0 0 92.22 1092.98 325.34 1458.59 0 0 907.45-1922.21-1154.54-2060.91 0 0-1906.9-143.68-1235.69 2055.39z"
            />
          </g>
          <g id="&lt;Group&gt;">
            <g id="&lt;Group&gt;">
              <path
                id="&lt;Path&gt;"
                class="s1"
                d="m1297.84 2229.29c109.79-246.95 191.09-534.31 167.66-806.04-6.58 6.61-13.18 13.17-19.77 19.77 309.91-8.15 622.29-45.48 926.07-106.01 218.23-43.46 437.26-103.26 636.22-204.82 150.75-76.9 299.76-193.91 340.37-366.2-12.97-1.73-25.91-3.51-38.84-5.25 16.68 196.19 42.93 391.87 74.12 586.19 46.9 292.27 95.35 626.11 253.93 882.36 13.4 21.65 47.6 1.81 34.13-19.92-152.91-247.18-199.23-568.7-246.25-850.43-33.04-198.07-59.37-398.04-76.4-598.2-1.81-21.15-33.39-28.22-38.83-5.25-42.77 181.56-211.12 290.14-369.05 365.73-199.88 95.7-421.2 147.77-637.88 188.96-281.49 53.51-570.94 85.74-857.59 93.31-10.05 0.27-20.71 8.8-19.76 19.76 22.79 264.24-55.28 545.43-162.25 786.12-10.27 23.05 23.8 43.2 34.12 19.92z"
              />
            </g>
          </g>
        </g>
      </svg>