<svg version="1.2" xmlns="http://www.w3.org/2000/svg" viewBox="0 -0.0004999999999881766 499.99949999999995 500.0005" width="499" height="500">
	<style>
		.s0 { fill: #ffffff;stroke: #000000;stroke-linecap: round;stroke-linejoin: round } 
		.s1 { fill: #757575;stroke: #000000;stroke-linecap: round;stroke-linejoin: round } 
		.s2 { fill: none;stroke: #757575;stroke-linecap: round;stroke-linejoin: round;stroke-width: 2 } 
		.s3 { fill: none;stroke: #000000;stroke-miterlimit:10 } 
		.s4 { fill: #000000 } 
	</style>
	<g id="OBJECTS">
		<g id="&lt;Group&gt;">
			<g id="&lt;Group&gt;">
				<g id="&lt;Group&gt;">
					<path id="&lt;Path&gt;" class="s0" d="m294.89 403.34c-21.87-25.5-14.89-63.43-14.89-63.43l-54.92-0.66-3.49 0.66c0 0 7.18 38.93-15.73 64.41 16.12 10.67 47.97 23.52 89.03-0.98z"/>
					<path id="&lt;Path&gt;" class="s1" d="m301.83 410.14q-3.87-3.21-6.94-6.8c-41.06 24.5-72.91 11.65-89.03 0.98q-3 3.34-6.72 6.31c13.07 10.8 51.29 34.69 102.69-0.49z"/>
					<path id="&lt;Path&gt;" class="s0" d="m346.57 433.73c-8.55-4.12-17.14-7.53-25.47-11.65-3.82-1.88-7.59-3.91-11.27-6.23q-2.96-1.86-5.85-4-1.1-0.83-2.15-1.71c-51.4 35.18-89.62 11.29-102.69 0.49-0.51 0.41-1 0.83-1.53 1.22-2.34 1.75-4.73 3.32-7.14 4.8-3.53 2.15-7.14 4.05-10.79 5.83-8.41 4.1-17.07 7.53-25.68 11.74-20.91 10.24-41.49 25.12-57.24 65.63h40.16 42.76 29.24 83.76 28.42 42.75 40.98c-16.01-41.17-37-55.86-58.26-66.12z"/>
					<g id="&lt;Clip Group&gt;">
						<g id="&lt;Group&gt;">
							<path id="&lt;Path&gt;" class="s2" d="m78.83 443.51h329.77"/>
							<path id="&lt;Path&gt;" class="s2" d="m78.83 465.9h329.77"/>
							<path id="&lt;Path&gt;" class="s2" d="m78.83 488.29h329.77"/>
							<path id="&lt;Path&gt;" class="s2" d="m78.83 420.38h329.77"/>
						</g>
						<path id="&lt;Path&gt;" class="s3" d="m346.57 433.73c-8.55-4.12-17.14-7.53-25.47-11.65-3.82-1.88-7.59-3.91-11.27-6.23q-2.96-1.86-5.85-4-1.1-0.83-2.15-1.71c-51.4 35.18-89.62 11.29-102.69 0.49-0.51 0.41-1 0.83-1.53 1.22-2.34 1.75-4.73 3.32-7.14 4.8-3.53 2.15-7.14 4.05-10.79 5.83-8.41 4.1-17.07 7.53-25.68 11.74-20.91 10.24-41.49 25.12-57.24 65.63h40.16 42.76 29.24 83.76 28.42 42.75 40.98c-16.01-41.17-37-55.86-58.26-66.12z"/>
					</g>
				</g>
			</g>
			<g id="&lt;Group&gt;">
				<g id="&lt;Group&gt;">
					<path id="&lt;Path&gt;" class="s0" d="m383.49 252.52c-0.8-9.4-4.64-17.3-15.6-14.76-2.07 0.48-4.43 1.84-6.73 3.56 1.4-7.68 2.48-15.52 3.2-23.45 7.07-77.73-12.2-156.74-112.41-156.74h-2.31c-100.21 0-119.48 79.01-112.41 156.74 0.72 7.93 1.8 15.77 3.2 23.45-2.3-1.72-4.66-3.08-6.73-3.56-10.96-2.54-14.8 5.36-15.6 14.76-1.45 17 9.86 32.87 26.19 41.15 2.74 1.38 8.5 2.88 14.43 3.56 18.57 36.09 48.87 60.32 92.08 58.1 43.2 2.22 73.5-22.01 92.07-58.1 5.94-0.68 11.69-2.18 14.43-3.56 16.33-8.28 27.64-24.15 26.19-41.15z"/>
					<g id="&lt;Group&gt;">
						<g id="&lt;Group&gt;">
							<path id="&lt;Path&gt;" class="s4" d="m254.42 211.31c-0.38 6.45 1.76 12.51 4.41 18.07 2.87 5.35 7.27 10.24 9.73 16.73 0.55 1.65 1.01 3.48 0.74 5.55-0.14 1.01-0.51 2.07-1.11 2.97l-0.53 0.7-0.41 0.44c-0.35 0.35-0.8 0.74-1.17 0.99-3.23 2.16-6.78 2.57-10.1 2.57-3.35-0.03-6.63-0.58-9.78-1.54q-1.17-0.39-2.31-0.88c-0.75-0.42-1.52-0.48-2.27-1.46-0.96-1.82 0.12-3.44-1.11-4.72 1.51 0.93 1.08 3.28 1.9 4.14 0.25 0.34 1.23 0.53 1.92 0.73q1.14 0.27 2.3 0.44c3.07 0.5 6.21 0.64 9.25 0.42 2.99-0.28 6.09-0.88 8.13-2.5 0.27-0.22 0.41-0.36 0.64-0.57l0.4-0.45c-0.04 0.02 0.12-0.18 0.17-0.26q0.42-0.65 0.52-1.5c0.14-1.13-0.17-2.5-0.65-3.85-1.99-5.59-6.19-10.59-8.86-16.77-2.4-6.08-3.64-12.98-1.81-19.25z"/>
						</g>
						<g id="&lt;Group&gt;">
							<path id="&lt;Path&gt;" class="s4" d="m167.2 175.04c1.69-4.35 4.22-7.91 7.47-11.02 3.26-3.09 7.58-5.46 11.83-6.69 4.6-1.31 8.75-1.59 13.12-1.34 4.29 0.34 8.7 1.18 12.76 3.6-4.11 2.18-7.88 3.7-11.7 5.01-3.74 1.27-7.68 2.35-10.95 3.27-3.6 1.06-6.81 2.08-10.41 3.43-3.64 1.32-7.51 2.88-12.12 3.74z"/>
						</g>
						<g id="&lt;Group&gt;">
							<path id="&lt;Path&gt;" class="s4" d="m224.16 278.68c3.96 3.1 8.33 5.44 12.82 7.16 4.52 1.66 9.24 2.56 13.97 2.41 9.54-0.15 18.58-4.38 27.17-9.57-3.41 3.72-7.44 6.96-12.05 9.3-4.58 2.37-9.76 3.8-15.04 3.94-10.6 0.26-20.96-5.04-26.87-13.24z"/>
						</g>
						<g id="&lt;Group&gt;">
							<path id="&lt;Path&gt;" class="s4" d="m334.39 175.04c-4.61-0.86-8.48-2.42-12.12-3.74-3.6-1.35-6.81-2.37-10.41-3.43-3.27-0.92-7.21-2-10.95-3.27-3.82-1.31-7.59-2.83-11.7-5.01 4.06-2.42 8.47-3.26 12.76-3.6 4.37-0.25 8.52 0.03 13.12 1.34 4.25 1.23 8.58 3.6 11.84 6.69 3.24 3.11 5.77 6.67 7.46 11.02z"/>
						</g>
						<g id="&lt;Group&gt;">
							<path id="&lt;Path&gt;" class="s4" d="m130.74 256.65c2.89 0.32 5.43 2.02 7.59 3.81 2.19 1.83 4.04 3.99 5.68 6.29 0.8 1.2 1.53 2.39 2.17 3.64 0.64 1.32 1.23 2.56 1.69 3.88 0.98 2.6 1.73 5.2 2.42 7.95-2.03-2-3.56-4.38-4.99-6.68l-2.12-3.39c-0.7-1.13-1.42-2.26-2.19-3.3-1.47-2.19-3.08-4.3-4.7-6.39-1.69-2.05-3.31-4.1-5.55-5.81z"/>
						</g>
						<g id="&lt;Group&gt;">
							<path id="&lt;Path&gt;" class="s4" d="m370.85 256.65c-2.23 1.71-3.86 3.76-5.55 5.81-1.62 2.09-3.23 4.2-4.7 6.39-0.77 1.04-1.49 2.17-2.19 3.3l-2.12 3.39c-1.43 2.3-2.96 4.68-4.99 6.68 0.69-2.75 1.44-5.35 2.42-7.95 0.46-1.32 1.05-2.56 1.69-3.88 0.64-1.25 1.37-2.44 2.17-3.64 1.64-2.3 3.49-4.46 5.68-6.29 2.16-1.79 4.71-3.49 7.59-3.81z"/>
						</g>
						<path id="&lt;Path&gt;" class="s4" d="m201.03 226.47c-3.76 3.76-9.84 3.76-13.6 0-3.76-3.75-3.76-9.85-0.01-13.6 3.76-3.75 9.85-3.75 13.6 0 3.76 3.76 3.76 9.85 0.01 13.6z"/>
						<path id="&lt;Path&gt;" class="s4" d="m300.65 226.47c3.76 3.76 9.85 3.76 13.6 0 3.76-3.75 3.76-9.85 0-13.6-3.75-3.75-9.84-3.75-13.59 0-3.76 3.76-3.76 9.85-0.01 13.6z"/>
					</g>
				</g>
			</g>
			<path id="&lt;Path&gt;" class="s0" d="m139.95 239.91c-13.16-24.88-16.09-63.64-15.36-91.44 1.47-37.3 13.17-68.76 44.62-89.24 17.56-11.7 38.04-10.24 55.59-18.28 11.71-5.86 19.02-14.63 27.8-21.95 11.7-10.24 11.7 2.93 9.51 13.17 7.31-11.7 19.75-28.53 33.65-32.19 4.38 11.71-3.66 27.07-9.51 37.31 7.31-7.32 18.28-15.36 28.53-15.36 1.46 6.58-8.05 18.29-11.71 23.4 30.72 16.83 62.25 30.17 70.95 66.57 9.59 40.11 0 76.8-5.85 102.41-2.19 8.77-3.66 16.82-7.31 24.86 2.92-16.09-5.12-65.1-7.32-70.22-1.46-2.92-7.31-5.12-10.24-8.04-2.19-2.93-3.66-8.05-5.12-11.71-5.12-15.36-2.92-35.84-11.7-49-8.78-13.9-20.43-7.32-33.6-3.66-16.09 5.12-31.45 7.31-48.27 8.05-16.83 0-41.75-8.78-57.84-9.52-18.29-0.73-16.83 20.49-18.29 35.12-1.46 8.04-2.19 16.82-6.58 23.4-4.39 7.32-13.9 8.05-16.1 14.63-3.65 10.24-5.85 71.69-5.85 71.69z"/>
		</g>
	</g>
</svg>