<svg
        version="1.2"
        xmlns="http://www.w3.org/2000/svg"
        viewBox="0 0 5000 5000"
        width="5000"
        height="5000"
      >
        <style>
          .s0 {
            fill: #757575;
            stroke: #000000;
            stroke-linecap: round;
            stroke-linejoin: round;
          }
          .s1 {
            fill: #ffffff;
            stroke: #000000;
            stroke-linecap: round;
            stroke-linejoin: round;
            stroke-width: 5;
          }
          .s2 {
            fill: #000000;
          }
          .s3 {
            fill: #ffeef7;
          }
        </style>
        <g id="Layer 1"></g>
        <g id="&lt;Group&gt;">
          <g id="&lt;Group&gt;">
            <g id="&lt;Group&gt;">
              <path
                id="&lt;Path&gt;"
                class="s0"
                d="m3577.04 4309.75c-75.06 103.62-158.77 183.8-204.64 214.69-436.55 293.62-1039.02 303.78-1536.54 65.45-173.06-82.92-297.7-173.68-368.43-302.95-70.2 33.92-140.09 72.49-208.28 122.4-23.13 192.51-27.49 391.54-28.18 587.92h818.03 900.99 897.95c-4.86-165.72-14.21-352.29-25.17-520.06-79.39-72.19-162.09-124.2-245.73-167.45z"
              />
              <path
                id="&lt;Path&gt;"
                class="s1"
                d="m842.57 4997.26h388.4c0.69-196.38 5.05-395.41 28.18-587.92-153.28 112.28-297.69 282.19-416.58 587.92z"
              />
              <path
                id="&lt;Path&gt;"
                class="s1"
                d="m1835.86 4589.89c497.52 238.33 1114.13 228.17 1536.54-65.45 45.41-31.61 129.58-111.07 204.64-214.69-171.98-88.99-347.66-141.58-505.35-259.1-352.45-262.56-258-773.87-258-773.87l-590.83-7.15-37.53 7.15c0 0 94.45 511.31-257.96 773.87-143.83 107.17-302.64 160.26-459.94 236.29 70.73 129.27 195.37 220.03 368.43 302.95z"
              />
              <path
                id="&lt;Path&gt;"
                class="s1"
                d="m3822.77 4477.2c10.96 167.77 20.31 354.34 25.17 520.06h308.51c-97.22-249.94-211.52-408.94-333.68-520.06z"
              />
            </g>
          </g>
          <g id="&lt;Group&gt;">
            <g id="&lt;Group&gt;">
              <path
                id="&lt;Path&gt;"
                class="s1"
                d="m3926.94 2336.73c-8.65-101.16-49.96-186.19-167.81-158.83-22.31 5.17-47.72 19.81-72.43 38.4 15.06-82.75 26.72-167.05 34.44-252.35 75.99-836.08-131.28-1685.98-1209.17-1685.98h-24.94c-1077.87 0-1285.18 849.9-1209.15 1685.98 7.76 85.3 19.34 169.6 34.44 252.35-24.71-18.59-50.08-33.23-72.39-38.4-117.85-27.36-159.16 57.67-167.81 158.83-15.6 182.79 106.1 353.55 281.75 442.55 29.5 14.94 91.35 31.1 155.18 38.36 199.78 388.16 525.66 648.85 990.49 625.05 464.73 23.8 790.69-236.89 990.47-625.05 63.79-7.26 125.64-23.42 155.14-38.36 175.61-89 297.31-259.76 281.79-442.55z"
              />
              <g id="&lt;Group&gt;">
                <g id="&lt;Group&gt;">
                  <path
                    id="&lt;Path&gt;"
                    class="s2"
                    d="m2477.69 1786.82c6.62 66.74 11.33 133.08 15.17 199.37l5.85 99.16c1.79 31.72 7.18 63.32 22.99 82.65 15.41 20.9 44.75 27.2 77.81 34.38 16.25 4.67 35.13 6.76 53.97 23.69 9.35 8.53 14.41 22.3 14.68 33.38 0.34 11.56-1.78 20.48-4.75 30.48-14.13 37.92-43.71 59.93-72.36 78.46-29.81 16.43-62.86 31.63-97.07 28.55 32.9-5.9 61.28-23.82 85.91-44.38 24.17-20.21 47.38-45.39 54.02-71.68 2.82-13.79 1.74-25.99-4.29-29.7-6.29-5.79-22.2-9.42-37.84-12.16-16.02-2.97-33.36-6.1-51.16-12.41-17.26-5.87-37.01-17.49-49.09-33.13-25.87-34.14-28.79-72.55-30.12-106.38-0.08-33.86-0.54-66.91 0.71-100.41 1.38-66.76 6.92-133.54 15.57-199.87z"
                  />
                </g>
                <g id="&lt;Group&gt;">
                  <path
                    id="&lt;Path&gt;"
                    class="s2"
                    d="m1600.33 1503.29c28.57-34.32 60.6-65.46 96.99-92.32 36.16-27.36 78.96-47.43 122.11-60.45 44.83-12.31 88.61-18.65 133.39-21.17 44.44-2.47 89.6-1.86 133.47 7.72-44.07 6.91-86.87 14.83-129.69 22.9-42.44 8.49-85.7 16.67-125.55 28.32-41.23 11.74-79.54 27.91-117.16 48.57-37.65 20.72-74.49 44.64-113.56 66.43z"
                  />
                </g>
                <g id="&lt;Group&gt;">
                  <path
                    id="&lt;Path&gt;"
                    class="s2"
                    d="m2212.98 2618.06c42.63 33.41 89.66 58.57 137.92 77.06 48.58 17.78 99.41 27.57 150.26 25.87 102.59-1.58 199.86-47.02 292.21-102.93-36.6 40.06-79.96 74.92-129.54 100.11-49.34 25.51-105.02 40.82-161.78 42.34-114 2.77-225.46-54.28-289.07-142.45z"
                  />
                </g>
                <path
                  id="&lt;Path&gt;"
                  class="s3"
                  d="m1777.58 2544.35c-131.14 0-237.14-67.95-237.14-152.02 0-84.06 106-152.01 237.14-152.01 131.13 0 237.13 67.95 237.13 152.01 0 84.07-106 152.02-237.13 152.02z"
                />
                <g id="&lt;Group&gt;">
                  <path
                    id="&lt;Path&gt;"
                    class="s2"
                    d="m3398.73 1503.29c-39.07-21.79-75.91-45.68-113.59-66.41-37.61-20.66-75.92-36.85-117.11-48.57-39.89-11.65-83.13-19.85-125.57-28.32-42.82-8.09-85.6-16.01-129.7-22.92 43.9-9.58 89.04-10.19 133.48-7.71 44.8 2.53 88.54 8.85 133.37 21.16 43.17 13.02 85.95 33.13 122.09 60.47 36.41 26.86 68.46 58 97.03 92.3z"
                  />
                </g>
                <path
                  id="&lt;Path&gt;"
                  class="s3"
                  d="m3221.46 2544.35c-131.12 0-237.11-67.95-237.11-152.02 0-84.06 105.99-152.01 237.11-152.01 131.13 0 237.12 67.95 237.12 152.01 0 84.07-105.99 152.02-237.12 152.02z"
                />
                <g id="&lt;Group&gt;">
                  <path
                    id="&lt;Path&gt;"
                    class="s2"
                    d="m1208.11 2381.13c31.02 3.4 58.44 21.74 81.66 40.99 23.51 19.69 43.42 42.92 61.07 67.65 8.57 12.91 16.5 25.73 23.4 39.13 6.79 14.23 13.2 27.57 18.11 41.76 10.57 27.97 18.61 55.93 26.08 85.49-21.84-21.49-38.31-47.09-53.75-71.84-8.03-12.24-15.02-25.1-22.73-36.45-7.52-12.22-15.32-24.29-23.55-35.52-15.89-23.58-33.16-46.2-50.6-68.73-18.14-22.03-35.68-44.06-59.69-62.48z"
                  />
                </g>
                <g id="&lt;Group&gt;">
                  <path
                    id="&lt;Path&gt;"
                    class="s2"
                    d="m3790.87 2381.13c-24.01 18.44-41.51 40.47-59.65 62.5-17.45 22.51-34.71 45.13-50.62 68.71-8.19 11.23-15.99 23.3-23.51 35.54l-22.75 36.43c-15.44 24.77-31.93 50.33-53.75 71.84 7.46-29.56 15.49-57.52 26.07-85.49 4.9-14.17 11.31-27.53 18.15-41.74 6.87-13.4 14.78-26.22 23.36-39.13 17.64-24.73 37.57-47.96 61.08-67.67 23.2-19.23 50.62-37.57 81.62-40.99z"
                  />
                </g>
                <path
                  id="&lt;Path&gt;"
                  class="s2"
                  d="m1964.17 2056.52c-40.39 40.39-105.88 40.37-146.3-0.03-40.39-40.41-40.39-105.92-0.04-146.31 40.39-40.38 105.91-40.34 146.3 0.04 40.39 40.43 40.42 105.92 0.04 146.3z"
                />
                <path
                  id="&lt;Path&gt;"
                  class="s2"
                  d="m3035.78 2056.52c40.39 40.39 105.95 40.37 146.34-0.03 40.39-40.41 40.39-105.92 0-146.31-40.39-40.38-105.88-40.34-146.26 0.04-40.39 40.43-40.39 105.92-0.08 146.3z"
                />
              </g>
            </g>
            <g id="&lt;Group&gt;">
              <path
                id="&lt;Path&gt;"
                class="s2"
                d="m4040.69 1171.44c6.18-204-72.89-423.22-156.61-605.3-87.34-190.02-404.11-509.63-934.71-457.68-648.01-194.12-1064.09-94.16-1408.93 80.53-351.68 178.17-496.97 557.05-548.29 930.25-41.12 299.14-18.26 450.7 88.46 738.45 44.17 119.16 145.69 357.67 337.82 458.88-51.9-228.19-30.08-678.89 83.98-896.56 235.1-448.52 566.39-200.98 776.06-472.69-25.06 236.08-65.49 389.4-166.73 525.06 201.67-101.93 513.21-357.79 537.54-616.53-2.17 186.48-18.54 305.69-137.23 480.87 253.99-98.86 363.11-183.71 483.96-380.4 13.51-22.07 25.49-43.87 36.76-65.57 132.67 234.36 309.66 440.66 469.44 529.26-25.48-36.68-21.7-271.14-43.63-310.33 122.01 165.84 177 508.45 176.77 711.7-0.16 134.87 13.97 359.47-9.2 495.19 407.05-397.64 403.42-774.03 414.54-1145.13z"
              />
            </g>
          </g>
        </g>
      </svg>