<svg version="1.2" xmlns="http://www.w3.org/2000/svg" viewBox="0 0 5000 5000" width="5000" height="5000">
	<style>
		.s0 { fill: #000000 } 
		.s1 { fill: #757575;stroke: #000000;stroke-linecap: round;stroke-linejoin: round } 
		.s2 { fill: #000000;stroke: #000000;stroke-miterlimit:10 } 
		.s3 { fill: #ffffff;stroke: #020202;stroke-miterlimit:10 } 
	</style>
	<g id="Layer 1">
	</g>
	<g id="&lt;Group&gt;">
		<g id="&lt;Group&gt;">
			<g id="&lt;Group&gt;">
				<path id="&lt;Path&gt;" class="s0" d="m4119.3 3878.41c79.64-119.15-14-217.26-111.22-183.68 43.42-50.82 35.64-148.41-55.96-128.27-2.49-68.51 43.45-191.6-94.54-176.82 110.48-60.8 69.63-227.98-76.99-181.1-0.04-0.45-0.15-0.93-0.19-1.42 91.41-70.29 28.82-175.11-74.02-181.62 49.22-25.43 86.86-66.31 37.75-101.95 54.25-39.39 103.77-136.35-7.78-151.76 45.31-58.98-19.92-132.4-92.71-145.36 37.68-98.97-56.82-119.48-150.91-124.88-3.98-43.6-3.05-81.02-41.7-115.61-49.93-44.66-153.06-63.99-212.49-20.07q0.05 0.23 0.15 0.52c-13.81 3.39-28.34 7.56-43.93 12.66-91.12 165.36-1483.2-32.45-1517.57 53.4-18.31 45.87 17.43 32.94-47.84 46.54-36.45 7.63-59.95 8.04-83.85 37.64-34.14 42.29-33.85 115.76 39.88 126.11-119.9-5.88-179.95 100.53-75.63 155.08-90.77-6.11-118.43 80.87-67.16 129.12 19.36 18.21 50.15 32.36 84.33 40.96-117.99 9.75-261.9 73.91-140.07 167.18-74.36 25.8-169.19 77.33-105.26 142.56-119.82 33.63-340.73 179.84-219.08 311.24-69 15.49-126.56 64.9-116.06 127.07 7.52 44.69 47.66 73.58 94.43 84.04-73.77 29.45-141.34 86.87-125.78 145.95 17.65 66.84 106.19 93.35 190.3 95.88 11.77 3.88 25.39 6.29 40.32 7.82-24.57 12.4-43.82 30.27-52.08 59.05-26.96 93.53 84.18 134.08 178.23 119.56 4.17 1.53 8.42 2.94 12.66 4.36-36.71 27.18-62.25 66.64-44.42 108.16 36.64 85.11 175.33 64.08 257.77 47.88-45.05 114.27 148.56 93.64 218.41 45.76-34.59 33.55-4.47 97.81 31.13 122.43 67.17 46.57 165.35 8.07 211.04-43.45 22.56 62.77 68.17 105.51 158.46 104.81 62.41-0.49 114.87-21.56 123.91-74.17 15.01 17.2 50.86 35.22 80.54 32.95 57.08 6.66 126.37-9.01 148.6-57.97 0.07-0.04 0.15 0 0.22-0.04 9.91 92.08 163.53 79.34 227.42 36.93 51.68 83.71 252.63 62.18 286.48-29.56 60.91 19.32 119 21.3 180.06-5.21 66.42-28.86 50.82-34.63 117.1-15.56 63.89 18.31 142.01 30.04 191.6-24.02 13.18-14.37 10.5-43.34 25.84-54.1 11.36-8.04 59.95-1.83 77.19-8.08 29.45-10.72 156.34 15.94 132.33-112.3 85.63 19.7 194.28-14.03 193.65-95.05 158.98 46.95 202.47-76.71 167.06-143.76 63.11-6.74 125.26-34.07 129.95-91.6 2.64-32.65-56.41-84.18-79.57-98.25z"/>
			</g>
			<path id="&lt;Path&gt;" class="s1" d="m2482.29 4133.64c192.65 21.15 374.68-34.92 489.51-159.73-199.46-263.32-131.95-630.07-131.95-630.07l-569.71-6.92-36.19 6.92c0 0 67.13 364.89-130.47 628.06 92.11 102.84 251.47 147.74 378.81 161.74z"/>
			<g id="&lt;Group&gt;">
				<path id="&lt;Path&gt;" class="s2" d="m2563.46 4265.45c255.57-12.96 405.62-107.53 492.6-201.51-32.32-28-60.17-58.24-84.22-90.03-114.87 124.81-296.9 180.88-489.55 159.73-127.34-14-286.7-58.9-378.81-161.74-23.53 31.35-50.79 61.21-82.29 88.91 89.96 105.75 254.24 219.16 542.27 204.64z"/>
				<path id="&lt;Path&gt;" class="s3" d="m3669 4392.56c-194.59-121.75-399.74-167.85-580.4-302.48-11.32-8.42-22.11-17.21-32.54-26.14-86.98 93.98-237.03 188.55-492.6 201.51-288.03 14.52-452.31-98.89-542.27-204.64-11.46 10.05-23.38 19.88-36 29.27-180.69 134.63-385.81 180.73-580.43 302.48-25.25 183.11-53.32 378.59-57.6 610.33h755.31 868.85 755.32c-4.32-231.74-32.4-427.22-57.64-610.33z"/>
				<path id="&lt;Path&gt;" class="s2" d="m939.11 5002.89h408.05c4.28-231.74 32.35-427.22 57.6-610.33-171.39 107.31-334.58 273.3-465.65 610.33z"/>
				<path id="&lt;Path&gt;" class="s2" d="m3669 4392.56c25.24 183.11 53.32 378.59 57.64 610.33h408c-131.06-337.03-294.22-503.02-465.64-610.33z"/>
			</g>
		</g>
		<g id="&lt;Group&gt;">
			<g id="&lt;Group&gt;">
				<g id="&lt;Group&gt;">
					<path id="&lt;Path&gt;" class="s0" d="m4216.55 1566.71c108.13-82.06 71.42-285.43-58.45-324.53 53.98-128.97 27.85-287.81-64.64-392.74-21.23-24.12-46.24-46.39-58.16-76.25-12.58-31.57-8.71-67.02-13.03-100.75-5.81-46.1-29.64-92.04-70.52-114.16-40.85-22.12-99.04-13.11-123.8 26.21 8.56-58.6 2.45-123.09-34.89-169.04-37.31-46.02-112.37-63.52-157.35-24.94-18.84-133.97-188.92-185.5-294.18-121.76 60.5-142.45-64.53-121.3-155.6-126.81-131.06-7.9-257.32-46.47-390.02-40.81-142.34 6.1-279.51 51.9-418.35 83.85-208.22 48.03-421.6 64.71-634.5 74.84-161.55 7.66-345.16-70.3-489.47 34.92-57.86 42.22-10.5 73.65-90.48 89.73-48.18 9.76-79.01 8.86-111.92 54.81-47.1 65.68-50.86 183.79 45.24 205.46-156.83-17.58-241.46 149.37-107.79 244.17-69.18-49.07-182.19 85.34-204.68 133.3-45.46 96.95-22.19 203.14 46.17 282.75-55.59 45.87-104.81 102.84-126.7 171.42-21.89 68.66-12.14 150.28 37.31 202.63-65.68 33.43-74.7 131.95-32.47 192.34 42.22 60.47 118.21 88.02 191.3 97.7-63.63 50.94-89.28 144.25-60.61 220.58 28.22 74.98 100.83 61.28 80.31 144.24-18.36 74.3-88.17 101.77-40.47 196.72 8.04 16.08 122.01 123.69 135.08 106.94-40.51 51.9-30.64 130.54 7.86 184 36 50.04 110.43 102.32 167.92 124.96 34.63 13.63 54.7-5.51 85.75 15.64 30.23 20.47 37.34 73.72 67.47 98.52 27.92 23.01 262.49 104.1 264.87 17.57-2.9 105.52 60.43 210.07 155.34 256.46 94.87 46.32 216.25 32.03 297.79-35.15 93.16 43.94 189.75 88.7 292.73 91.23 102.95 2.46 214.69-49.15 249.51-146.11 116.05 135.01 358.29 127.57 465.82-14.29 83.78 62.25 204.71 69.55 295.37 17.87 90.67-51.68 146-159.44 135.13-263.24 94.27 9.83 194.58 6.63 276.64-40.81 82.1-47.43 138.18-150.13 106.42-239.48 153.62-10.06 297.26-114.31 354.38-257.36 16.09-40.36 5.44-107.36-37.3-99.32 134.26-91.08 157.49-308.07 45.57-425.51 107.53-88.76 91.74-285.28-28.6-355.8z"/>
				</g>
			</g>
			<g id="&lt;Group&gt;">
				<path id="&lt;Path&gt;" class="s1" d="m3913.32 2437.36c-8.34-97.53-48.18-179.52-161.81-153.16-21.52 4.99-45.98 19.14-69.81 37.01 14.55-79.75 25.72-161.07 33.2-243.36 73.32-806.18-126.59-1625.76-1166-1625.76h-24.01c-1039.41 0-1239.32 819.58-1166 1625.76 7.44 82.29 18.65 163.61 33.21 243.36-23.83-17.87-48.33-32.02-69.85-37.01-113.64-26.36-153.48 55.63-161.82 153.16-15 176.26 102.36 340.91 271.73 426.77 28.41 14.37 88.09 29.93 149.6 36.94 192.65 374.34 506.94 625.66 955.12 602.73 448.21 22.93 762.46-228.39 955.11-602.73 61.55-7.01 121.23-22.57 149.64-36.94 169.38-85.86 286.74-250.51 271.69-426.77z"/>
				<g id="&lt;Group&gt;">
					<g id="&lt;Group&gt;">
						<path id="&lt;Path&gt;" class="s0" d="m1669.78 1633.66c22.46-39.23 51.2-72.46 85.42-101.71 34.36-29.15 77.44-51.34 120.3-63.81 45.42-12.91 88.13-17.15 132.33-17.17 43.71 0.78 88.35 5.16 130.57 22.43-42.59 14.71-82.77 26.14-123.2 37.07l-117.36 30.53c-38.54 11.34-73.65 24.17-110.43 41.29-37.16 16.63-74.81 36.47-117.63 51.37z"/>
					</g>
					<path id="&lt;Path&gt;" class="s3" d="m2820.26 2784.9c-324.27 358.33-559.65 0-559.65 0z"/>
					<g id="&lt;Group&gt;">
						<path id="&lt;Path&gt;" class="s0" d="m3403.97 1633.66c-42.82-14.91-80.46-34.76-117.62-51.39-36.79-17.12-71.86-29.92-110.44-41.27l-117.36-30.53c-40.43-10.93-80.61-22.36-123.2-37.07 42.22-17.27 86.87-21.65 130.58-22.43 44.19 0.02 86.9 4.26 132.33 17.17 42.81 12.47 85.93 34.64 120.29 63.79 34.22 29.25 63.01 62.5 85.42 101.73z"/>
					</g>
					<g id="&lt;Group&gt;">
						<path id="&lt;Path&gt;" class="s0" d="m1291.61 2480.18c29.89 3.27 56.33 20.96 78.74 39.5 22.68 18.99 41.89 41.41 58.87 65.27 8.26 12.44 15.9 24.76 22.56 37.72 6.56 13.7 12.74 26.58 17.46 40.25 10.21 26.99 17.95 53.95 25.18 82.43-21.08-20.7-36.94-45.38-51.83-69.25-7.75-11.8-14.49-24.2-21.94-35.15-7.25-11.77-14.78-23.45-22.71-34.29-15.3-22.71-31.94-44.53-48.77-66.24-17.5-21.22-34.41-42.48-57.56-60.24z"/>
					</g>
					<g id="&lt;Group&gt;">
						<path id="&lt;Path&gt;" class="s0" d="m3782.19 2480.18c-23.16 17.76-40.07 39.02-57.57 60.24-16.83 21.71-33.47 43.53-48.77 66.24-7.93 10.84-15.49 22.52-22.72 34.29-7.44 10.95-14.18 23.35-21.93 35.11-14.89 23.91-30.75 48.59-51.82 69.29 7.22-28.48 14.96-55.44 25.13-82.43 4.73-13.67 10.91-26.55 17.5-40.25 6.66-12.96 14.3-25.28 22.52-37.72 17.02-23.86 36.23-46.28 58.91-65.27 22.41-18.54 48.85-36.23 78.75-39.5z"/>
					</g>
					<path id="&lt;Path&gt;" class="s0" d="m2020.67 2167.14c-38.95 38.94-102.09 38.94-141.08 0-38.98-39.02-38.98-102.17-0.03-141.12 38.94-38.94 102.09-38.87 141.04 0.07 38.98 38.95 39.02 102.1 0.07 141.05z"/>
					<path id="&lt;Path&gt;" class="s0" d="m3054.05 2167.14c38.94 38.94 102.09 38.94 141.04 0 38.98-39.02 39.02-102.17 0.07-141.12-38.94-38.94-102.09-38.87-141.07 0.07-38.98 38.95-38.98 102.1-0.04 141.05z"/>
					<g id="&lt;Group&gt;">
						<path id="&lt;Path&gt;" class="s0" d="m2564.91 2181.32c7.49 28.49 16.5 55.85 32.73 77.28 16.05 21.41 38.43 38.17 60.84 56.35l-1.41-1.11c13.32 8.69 27.1 16.79 40.92 27.03 6.85 5.27 13.81 10.76 20.62 18.52 6.56 7.34 14.08 18.95 14.23 33.74-0.12 14.67-6.89 25.5-12.96 33.28-6.33 8.01-13.07 14.08-19.85 19.7-6.77 5.55-13.66 10.68-20.59 15.38-6.48 4.24-12.66 8.75-20.99 13.33-30.8 17.68-64.31 26.13-97.37 28.96-33.1 3.02-65.79 0.67-97.81-4.76 32.05-5.48 63.66-10.58 93.83-18.36 30.04-7.74 58.75-19.29 82.69-35.19 5.59-3.42 11.95-8.93 18.62-13.88 6.22-4.43 12.1-9.09 17.61-13.82 11.13-8.86 19.55-21.52 18.95-24.79 1.45-2.68-7.63-14.45-19.47-23.2l-37.5-28.69-1.3-0.98-0.11-0.13c-20.7-20.17-43.45-41.54-57.53-70.12-14.3-28.35-16.64-59.57-14.15-88.54z"/>
					</g>
				</g>
				<g id="&lt;Group&gt;">
					<path id="&lt;Path&gt;" class="s0" d="m3269.41 468.17c36.93-51.53 61.06-113.33 57.78-150.12-8.37-94.72-216.17-236.06-278.69-267.49-128.71-64.71-325.6-57.48-454.84-45.42-108.24 10.13-440.96-34.7-479.12 72.31-106.04-27.26-288.82-63.53-294.11 94.72-130.72-67.69-265.92-60.84-274.45 100.75-133.48-74.17-359.75 131.96-410.42 242.69-20.96 45.8 16.05 110.43-1.56 155.26-20.11 51.31-78.23 60.84-95.69 102.99-55.52 133.97-61.33 175.07 1.04 311.12-139.85 61.36-95.5 275.61-10.2 371.44-72.35 63.9-86.39 255.5-55.48 328.4 53.13 125.18 193.31 143.5 236.25 256.62 32.43-2.31 61.62-10.5 87.94-22.79 22.01 22.94 42.97 49.22 57.3 85.86 41.89 107.08-62.47 245.59 94.17 278.71-19.03-186.37-9.8-373.43-12.85-508.37 20.18-40.95 33.1-84.74 38.76-125.69 19.7-142.31 68.81-313.44 77.63-459.99 143.46 104.03 488.8-118.47 536.13-259.51 50.22 165.61 307.06 49.14 341.09-77.01 104.33 83.78 316.89-54.65 409.2-108.79 84.74-49.67 155.89-106.94 190.82-180.43 4.17 7.37 8.45 14.82 12.84 22.48 20.52 35.45 90.11 0.31 115.99 33.81 18.24 23.69-15.79 84.3 2.12 101.87 52.5 51.61 14.15 123.62 141 119.08-14.97 223.85 21.86 195.62 124.21 371.59 61.36 105.52-18.91 201.73 160.07 250.28-113.34 189-0.71 240.01 45.95 394.9 34.36 114.3-66.21 244.92-41.04 348.43 51.09 209.83 88.17 37.68 123.02-68.51 38.95-118.78 74.99-241.13 94.09-362.58 66.5-423.27-38.09-1171.96-538.95-1406.61z"/>
				</g>
			</g>
		</g>
	</g>
</svg>