<svg
        version="1.2"
        xmlns="http://www.w3.org/2000/svg"
        viewBox="0 0 5000 5000"
        width="5000"
        height="5000"
      >
        <style>
          .s0 {
            fill: #ffffff;
            stroke: #000000;
            stroke-miterlimit: 10;
            stroke-width: 5px;
          }
          .s1 {
            fill: #000000;
            stroke: #000000;
            stroke-miterlimit: 10;
          }
          .s2 {
            fill: none;
            stroke: #bed8e3;
            stroke-miterlimit: 10;
          }
          .s3 {
            fill: #000000;
          }
          .s4 {
            fill: #ffeef7;
          }
          .s5 {
            fill: #ffffff;
            stroke: #000000;
            stroke-width: 5px;
            stroke-linecap: round;
            stroke-linejoin: round;
          }
        </style>
        <g id="Layer 1"></g>
        <g id="&lt;Group&gt;">
          <path
            id="&lt;Path&gt;"
            class="s0"
            d="m2930.63 3833.48c106.32 3.32 293.09-3.02 395.5-31.69-8.18 20.71-69.21 124.41-77.39 145.12 130.53-48.05 273.78-107.38 331.89-233.79-14.96 75.07-29.99 150.18-44.99 225.25 200.55-64.94 394.61-160.94 547-306.62 152.35-145.67 260.07-345.15 267.1-555.84 5.31-158.02-44.7-311.99-69.28-468.17-43.15-274.06-70.24-552.81-62.83-830.18 14.85-553.94-168.23-1164.31-617.5-1521.24-215.77-171.4-583.15-245.71-851.69-255.83-282.51-10.65-441.57 83.01-714.87 140.94-550.57 0-986.68 523.14-1119.87 1019.63-86.19 321.45-77.46 660.08-127.32 989.14-30.18 199.33-81.89 394.89-112.11 594.22-30.25 199.3-38.36 406.12 17.66 599.74 56.08 193.69 183.71 373.61 367.41 456.6-45.33-42.68-76.69-99.94-88.18-161.16 149.06 142.29 354.11 224.32 560.19 223.96 6.56-19.39 4.31 3.24-8.44-12.79-37.66-47.36-65.12-102.78-79.93-161.45 76.5 69.43 174.57 111.81 275.17 135.28 76.47 17.88 158.43 12.64 233.39 31.18 91.1 22.52 158.39 65.12 257.89 60.55q-14.93-34.73-29.92-69.4c139.37 50.42 277.61 52.15 420.52 78.02 122.98 22.26 204.93-95.37 330.6-91.47z"
          />
          <g id="&lt;Group&gt;">
            <path
              id="&lt;Path&gt;"
              class="s0"
              d="m2767.78 3358.68l-563.88-6.86-35.82 6.86c0 0 44.78 243.48-47.39 474.8h694.45c-92.13-231.32-47.36-474.8-47.36-474.8z"
            />
            <path
              id="&lt;Path&gt;"
              class="s1"
              d="m2844.31 3696.13h-748.51c24.91 76.44-9.75 213.93-33.48 250.56h811.19c-23.7-36.63-54.08-177-29.2-250.56z"
            />
            <path
              id="&lt;Path&gt;"
              class="s1"
              d="m3013.99 4097.27c-59.22-44.11-104.92-95.66-140.48-150.58h-811.19c-35.53 54.92-81.23 106.47-140.45 150.58-336.35 250.6-758.38 191.27-1035.36 903.47h1151.48 859.92 1151.49c-276.99-712.2-699.09-652.87-1035.41-903.47z"
            />
          </g>
          <path id="&lt;Path&gt;" class="s2" d="" />
          <path id="&lt;Path&gt;" class="s2" d="" />
          <g id="&lt;Group&gt;">
            <path
              id="&lt;Path&gt;"
              class="s0"
              d="m3830.27 2461.47c-8.22-96.53-47.68-177.68-160.16-151.59-21.3 4.94-45.48 18.9-69.09 36.63 14.4-78.94 25.49-159.42 32.9-240.83 72.53-797.96-125.3-1609.16-1154.1-1609.16h-23.77c-1028.77 0-1226.63 811.2-1154.07 1609.16 7.37 81.41 18.5 161.89 32.87 240.83-23.58-17.73-47.83-31.69-69.1-36.63-112.51-26.09-151.94 55.06-160.16 151.59-14.88 174.46 101.27 337.42 268.92 422.36 28.15 14.27 87.19 29.67 148.07 36.6 190.71 370.51 501.74 619.3 945.33 596.57 443.63 22.73 754.67-226.06 945.34-596.57 60.92-6.93 119.99-22.33 148.11-36.6 167.64-84.94 283.8-247.9 268.91-422.36z"
            />
            <g id="&lt;Group&gt;">
              <g id="&lt;Group&gt;">
                <path
                  id="&lt;Path&gt;"
                  class="s3"
                  d="m2464.52 1973.31c4.74 59.27 7.87 118.46 16.4 176.26 8.83 56.68 20.9 116.88 53.68 157.53 16.6 19.55 38.23 29.96 63.24 28.5l11.38-0.72 2.86-0.11q3.05 0.2 6.14 0.7c3.94 0.41 8.38 2.32 12.38 4.66 9.07 5.59 13.5 17.51 13.14 24.38 0.15 7.32-1.33 12.5-2.8 17.32-6.62 18.02-15.57 30.85-25.32 43.38-19.68 24.5-42.25 45.4-67.48 63.05-12.7 8.66-25.92 16.73-40.42 22.44-14.17 5.72-29.84 10.91-45.08 8.22 28.92-7.92 49.24-29.85 69.79-49.45 20.02-20.49 38.85-42.45 54.59-65.38 7.67-11.31 15.33-23.45 18.43-33.53 0.6-2.25 0.88-4.35 0.75-4.44-0.29-0.61 0.61 4.05 3.65 5.36 5.6 1.88-1.6-0.19-10.72 1.14-34.64 2.23-72.09-15.81-91.71-43.37-39.91-54.91-45.94-117.97-50.36-177.32-3.22-60.11 1.59-119.59 7.46-178.62z"
                />
              </g>
              <g id="&lt;Group&gt;">
                <path
                  id="&lt;Path&gt;"
                  class="s3"
                  d="m1609.73 1666.03c27.27-32.76 57.84-62.5 92.58-88.13 34.51-26.09 75.32-45.29 116.54-57.71 42.79-11.76 84.56-17.78 127.31-20.2 42.41-2.36 85.51-1.76 127.4 7.36-42.07 6.59-82.92 14.17-123.79 21.87-40.5 8.1-81.79 15.92-119.84 27.03-39.33 11.17-75.9 26.66-111.82 46.38-35.92 19.77-71.08 42.58-108.38 63.4z"
                />
              </g>
              <path
                id="&lt;Path&gt;"
                class="s0"
                d="m2194.47 2805.45c0 0 232.98 360.53 553.97 0z"
              />
              <path
                id="&lt;Path&gt;"
                class="s4"
                d="m1778.9 2659.62c-125.16 0-226.33-64.84-226.33-145.07 0-80.23 101.17-145.08 226.33-145.08 125.16 0 226.33 64.85 226.33 145.08 0 80.23-101.17 145.07-226.33 145.07z"
              />
              <g id="&lt;Group&gt;">
                <path
                  id="&lt;Path&gt;"
                  class="s3"
                  d="m3326.13 1666.03c-37.29-20.82-72.45-43.63-108.38-63.4-35.92-19.72-72.49-35.21-111.81-46.38-38.05-11.11-79.34-18.94-119.85-27.03-40.87-7.7-81.72-15.28-123.78-21.87 41.88-9.12 84.98-9.72 127.4-7.36 42.75 2.42 84.52 8.44 127.3 20.2 41.22 12.42 82.04 31.62 116.55 57.71 34.73 25.63 65.3 55.37 92.57 88.13z"
                />
              </g>
              <path
                id="&lt;Path&gt;"
                class="s4"
                d="m3156.98 2659.62c-125.17 0-226.35-64.84-226.35-145.07 0-80.23 101.18-145.08 226.35-145.08 125.17 0 226.35 64.85 226.35 145.08 0 80.23-101.18 145.07-226.35 145.07z"
              />
              <g id="&lt;Group&gt;">
                <path
                  id="&lt;Path&gt;"
                  class="s3"
                  d="m1235.39 2503.85c29.61 3.24 55.77 20.75 77.94 39.1 22.44 18.8 41.46 40.94 58.3 64.57 8.16 12.34 15.74 24.58 22.3 37.36 6.5 13.57 12.62 26.32 17.3 39.84 10.08 26.68 17.76 53.4 24.89 81.59-20.84-20.52-36.57-44.92-51.32-68.54l-21.68-34.79c-7.19-11.68-14.61-23.22-22.46-33.94-15.17-22.48-31.64-44.08-48.28-65.56-17.34-21.04-34.07-42.05-56.99-59.63z"
                />
              </g>
              <g id="&lt;Group&gt;">
                <path
                  id="&lt;Path&gt;"
                  class="s3"
                  d="m3700.48 2503.85c-22.92 17.58-39.66 38.59-56.98 59.63-16.64 21.48-33.11 43.08-48.25 65.56-7.84 10.72-15.33 22.29-22.5 33.94-7.35 10.83-14.04 23.07-21.69 34.75-14.74 23.62-30.46 48.06-51.28 68.58 7.11-28.19 14.78-54.91 24.86-81.59 4.68-13.56 10.8-26.27 17.32-39.87 6.57-12.79 14.13-24.99 22.31-37.29 16.84-23.63 35.84-45.81 58.29-64.61 22.14-18.35 48.31-35.86 77.92-39.1z"
                />
              </g>
              <path
                id="&lt;Path&gt;"
                class="s3"
                d="m1956.99 2194.02c-38.55 38.54-101.05 38.54-139.63 0-38.58-38.59-38.58-101.13-0.04-139.64 38.55-38.55 101.05-38.55 139.64 0.04 38.58 38.55 38.58 101.05 0.03 139.6z"
              />
              <path
                id="&lt;Path&gt;"
                class="s3"
                d="m2979.79 2194.02c38.55 38.54 101.05 38.54 139.64 0 38.58-38.59 38.58-101.13 0.03-139.64-38.54-38.55-101.04-38.55-139.63 0.04-38.58 38.55-38.58 101.05-0.04 139.6z"
              />
            </g>
          </g>
          <g id="&lt;Group&gt;">
            <path
              id="&lt;Path&gt;"
              class="s5"
              d="m1600.39 455.91c-7.13 6.29-494.11 352.22-394.94 968.59h2666.13c0 0 54.53-559.77-423.41-968.59"
            />
            <g id="&lt;Group&gt;">
              <g id="&lt;Group&gt;">
                <path
                  id="&lt;Path&gt;"
                  class="s3"
                  d="m1477.75 1403.97c3.24-130.1 13.21-262.44 49.73-388.75 35.91-126.52 99.83-242.6 176.65-347.04-71.75 108.13-129.28 226.29-158.39 351.83-29.76 125.48-33.28 255-30.26 384.11 0.24 10.43-8.01 19.07-18.42 19.31-10.43 0.24-19.07-8-19.31-18.42-0.02-0.28 0-0.76 0-1.04z"
                />
              </g>
              <g id="&lt;Group&gt;">
                <path
                  id="&lt;Path&gt;"
                  class="s3"
                  d="m1574.59 1399.26c3.16-94.22 10.8-189.57 32.36-281.99 21.25-92.56 56.33-180.66 97.18-265.12-35.14 87.04-63.98 176.78-78.66 268.74-15.02 91.97-16.25 185.15-13.14 278.51 0.35 10.42-7.81 19.15-18.24 19.5-10.43 0.35-19.14-7.81-19.5-18.24-0.01-0.41-0.01-1 0-1.4z"
                />
              </g>
              <g id="&lt;Group&gt;">
                <path
                  id="&lt;Path&gt;"
                  class="s3"
                  d="m2133.24 1419.58c13.73-54.32 15.4-118 18.96-178.01 2.74-60.9 4.04-122 4.57-183.12 0.48-61.12 0.19-122.28-1.07-183.44-1.49-61.11-2.93-122.33-8.84-183.24 9.04 60.58 13.63 121.74 18.28 182.8 4.38 61.12 7.83 122.3 10.5 183.55 2.61 61.24 4.46 122.55 4.84 184.02 0.17 30.73-0.03 61.5-1.1 92.44-1.55 31.11-2.05 61.58-9.69 94.84-2.35 10.16-12.48 16.49-22.63 14.15-10.15-2.32-16.49-12.46-14.15-22.61q0.02-0.16 0.07-0.29z"
                />
              </g>
              <g id="&lt;Group&gt;">
                <path
                  id="&lt;Path&gt;"
                  class="s3"
                  d="m2250.49 1412.86c0.68 0.94 3.76-11.04 4.93-18.63 1.55-8.66 2.67-17.82 3.75-26.92 2.04-18.32 3.57-36.93 4.89-55.58 2.6-37.31 4.37-74.86 5.86-112.41 3.03-75.68 5.18-149.65 2.31-225.38-1.27-75.38-2.16-150.59-7.83-225.57-5.75-74.84-16.42-149.73-39.14-221.7 25.71 70.96 39.6 145.84 48.5 220.8 8.83 75.07 12.86 150.58 17.24 225.76 5.96 74.79 7.06 151.57 7.16 226.58 0.09 37.79-0.1 75.59-1.15 113.54-0.55 18.98-1.29 37.98-2.63 57.2-0.74 9.63-1.48 19.24-2.82 29.19-0.68 4.99-1.42 10-2.6 15.42-0.42 2.54-1.46 5.75-2.25 8.66-0.94 2.56-2.08 5.12-3.39 7.52l-2.25 3.63c-6.1 8.44-17.89 10.33-26.35 4.24-8.44-6.1-10.33-17.9-4.23-26.35z"
                />
              </g>
              <g id="&lt;Group&gt;">
                <path
                  id="&lt;Path&gt;"
                  class="s3"
                  d="m2372.72 1414.74c23.87-103.58 26.56-211.45 22.85-319.03-3.72-107.74-14.17-215.65-18.13-323.75 10.23 107.68 26.9 214.44 36.96 322.53 9.99 107.77 13.86 218.2-4.57 327.18l-0.09 0.46c-1.73 10.28-11.48 17.18-21.76 15.45-10.28-1.73-17.21-11.48-15.46-21.76 0.06-0.35 0.13-0.75 0.2-1.08z"
                />
              </g>
              <g id="&lt;Group&gt;">
                <path
                  id="&lt;Path&gt;"
                  class="s3"
                  d="m2847.58 1420.32c8.56-44.15 13.27-85.96 15.56-130.42 2.21-43.84 1.69-87.97-0.92-132.08-5.29-88.22-18.87-176.25-37.45-263.22 24.66 85.46 44.56 172.62 56.22 261.43 5.81 44.41 9.53 89.22 10.45 134.29 0.99 44.44-1.13 91.51-6.48 135.19l-0.08 0.71c-1.27 10.35-10.71 17.72-21.06 16.45-10.36-1.27-17.71-10.69-16.44-21.04 0.04-0.43 0.11-0.89 0.2-1.31z"
                />
              </g>
              <g id="&lt;Group&gt;">
                <path
                  id="&lt;Path&gt;"
                  class="s3"
                  d="m2949.58 1403.62c17.83-53.54 13.52-114.75 10.31-174.79-4.23-60.9-6.19-121.28-13.83-181.35-13.81-120.28-39.36-239.46-75.18-355.71 41.77 114.24 73.67 232.48 93.86 353.06 10.83 60.22 16.03 121.35 23.35 181.5 6.09 60.31 14.88 123.49-2.22 187.58l-0.14 0.57c-2.69 10.08-13.03 16.05-23.11 13.37-10.08-2.69-16.07-13.04-13.38-23.12 0.09-0.35 0.2-0.76 0.34-1.11z"
                />
              </g>
              <g id="&lt;Group&gt;">
                <path
                  id="&lt;Path&gt;"
                  class="s3"
                  d="m3283.95 1414.64c7.26-26.75 11.98-51.06 15.2-78 3.12-26.32 4.32-53.04 3.65-79.82-1.34-53.55-10.11-107.35-26.09-159.38 21.87 49.84 37.13 103.05 44.89 157.82 3.89 27.38 5.86 55.15 5.8 83.04 0.06 27.31-2.35 57.05-6.37 83.46l-0.11 0.68c-1.57 10.33-11.23 17.43-21.54 15.84-10.34-1.56-17.43-11.22-15.87-21.54q0.17-1.07 0.44-2.1z"
                />
              </g>
              <g id="&lt;Group&gt;">
                <path
                  id="&lt;Path&gt;"
                  class="s3"
                  d="m3373.87 1412.95c15.45-46.77 16.4-100.4 16.55-152.7 0.04-52.81-4.73-105.03-11.52-157.71-13.61-105.07-37.38-208.99-65.3-311.71 33.93 100.88 63.9 203.48 83.93 308.71 9.95 52.4 18.06 106.04 21.17 159.68 2.82 53.6 5.87 108.33-8.56 164.23-2.54 10.12-12.79 16.27-22.91 13.73-10.11-2.53-16.27-12.77-13.74-22.89 0.11-0.38 0.27-0.95 0.38-1.34z"
                />
              </g>
              <g id="&lt;Group&gt;">
                <path
                  id="&lt;Path&gt;"
                  class="s3"
                  d="m3668.79 1415.07c16.45-70.94 15.38-145.05 3.59-218.3-11.67-73.33-32.87-145.49-54.41-217.26 27.45 69.72 54.72 139.83 72.91 213.52 18.28 73.27 26.22 151.56 15.13 228.3l-0.11 0.7c-1.5 10.34-11.08 17.51-21.41 16.01-10.33-1.51-17.49-11.09-16-21.41 0.07-0.51 0.18-1.07 0.3-1.56z"
                />
              </g>
            </g>
          </g>
        </g>
      </svg>