<svg version="1.2" xmlns="http://www.w3.org/2000/svg" viewBox="0 0 5000 5000" width="5000" height="5000">
	<style>
		.s0 { fill: #757575;stroke: #000000;stroke-linecap: round;stroke-linejoin: round } 
		.s1 { fill: #ffffff;stroke: #000000;stroke-linecap: round;stroke-linejoin: round } 
		.s2 { fill: #000000;stroke: #000000;stroke-miterlimit:10 } 
		.s3 { fill: #ffffff;stroke: #000000;stroke-miterlimit:10 } 
		.s4 { fill: #000000 } 
	</style>
	<g id="Layer 1">
		<g id="&lt;Group&gt;">
			<g id="&lt;Group&gt;">
				<g id="&lt;Group&gt;">
					<path id="&lt;Path&gt;" class="s0" d="m3054.03 4079.71c-46.85-34.89-85.3-74.43-117.21-116.5-200.16-264.31-132.42-632.34-132.42-632.34l-571.7-6.87-36.31 6.87c0 0 67.36 366.17-130.93 630.25-23.76 31.68-51.3 61.95-83.24 89.9l146.69 85.34 398.15 231.8 390.71-209.54 141.04-75.62c-1.57-1.19-3.21-2.09-4.78-3.29z"/>
					<path id="&lt;Path&gt;" class="s1" d="m3058.81 4083l-141.04 75.62-390.71 209.54-398.15-231.8-146.69-85.34c-11.29 9.86-23.02 19.5-35.46 28.69-10.95 8.22-22.23 15.1-33.37 22.64l130.33 75.85 483.34 281.35 478.32-256.54 129.8-69.57c-25.81-15.47-51.33-32.06-76.37-50.44z"/>
					<path id="&lt;Path&gt;" class="s2" d="m2043.72 4178.2l-130.33-75.85c-172.99 117.4-365.56 166.12-549.09 280.98-171.98 107.61-335.75 274.25-467.27 612.47h241.29c103.2-358.84 583.66-655.06 905.4-817.6z"/>
					<path id="&lt;Path&gt;" class="s2" d="m3636.46 4383.33c-166.72-104.4-340.98-153.71-501.28-249.89l-129.8 69.57c319.65 166.87 758.93 451.51 857.05 792.79h241.33c-131.52-338.22-295.28-504.86-467.3-612.47z"/>
					<path id="&lt;Path&gt;" class="s3" d="m3005.38 4203.01l-478.32 256.54-483.34-281.35c-321.74 162.54-802.2 458.76-905.4 817.6h168.18 757.96 871.88 757.95 168.14c-98.12-341.28-537.4-625.92-857.05-792.79z"/>
				</g>
				<path id="&lt;Path&gt;" class="s2" d="m3340.95 4912.17c-113.69 0-205.58-38.81-205.58-86.83 0-48.02 91.89-86.83 205.58-86.83 113.68 0 205.57 38.81 205.57 86.83 0 48.02-91.89 86.83-205.57 86.83z"/>
			</g>
			<g id="&lt;Group&gt;">
				<path id="&lt;Path&gt;" class="s2" d="m1130.55 856.05c-18.01 48.2-31.27 97.67-38.93 148.26-53.1 349.43-31.28 1049.62 143.03 1363.78 102.45 184.5 310.86-73.39 488.34-27.51 478.66 123.75 979.86 125.32 1472.73 195.04 224.78 0 359.84 83.4 487.18-101.85 127.33-185.25 229.15-594.68 243.8-819.01 38.67-592.22-241.19-1372.59-905.32-1533.41-353.76-85.71-638.92-117.24-981.81-5.9-347.74 112.92-770.18 409.13-909.02 780.6z"/>
				<g id="&lt;Group&gt;">
					<path id="&lt;Path&gt;" class="s0" d="m3881.64 2421.22c-8.37-97.9-48.35-180.17-162.38-153.72-7.51 1.8-15.47 4.93-23.55 8.67-15.02 33.18-33.62 60.6-56.94 71.44-90.87 42.15-99.2-147.81-98.11-210.21 5.86-341.65-19.36-705.65-83.85-1062.55-12.18-67.4-68.07-232.17-143.1-237.93-63.07-4.85-598.75 293.98-1626.03 7.25-160.25-44.76-233.41 899.87-233.41 1044.77 0 136.75 49.92 575.24-47.38 478.7-27.61-6.13-50.21-35.87-70.09-73.39-19.09-12.85-38.11-22.71-55.3-26.75-114.03-26.45-154.01 55.82-162.38 153.72-15.06 176.88 102.71 342.1 272.68 428.26 28.51 14.42 88.4 30.11 150.12 37.06 193.36 375.66 508.71 627.94 958.46 604.92 449.78 23.02 765.13-229.26 958.45-604.92 61.76-6.95 121.66-22.64 150.16-37.06 169.97-86.16 287.74-251.38 272.65-428.26z"/>
				</g>
				<g id="&lt;Group&gt;">
					<g id="&lt;Group&gt;">
						<path id="&lt;Path&gt;" class="s4" d="m2480.01 1683.13c-6.35 158.35 4.45 314.76 40.95 466.3l6.84 28.36 3.4 13.38c1.12 3.62 2.17 5.45 4.49 9.71 8.66 14.95 21.18 30.57 32.8 46.22 23.28 31.8 48.5 63.48 66.81 101.07 8.78 18.76 17.29 39.16 16.96 62.85 0.64 24.36-17.15 47.75-37.03 56.27-40.12 17.22-80.81 15.61-120.2 12.21 38.75-4.82 80.3-8.67 110.86-28.5 33.22-18.95 22.08-57.28 3.03-88.82-19.32-32.06-43.94-62.28-69.01-92.77-12.48-15.58-24.89-30.75-36.54-49.73-2.62-4.3-6.17-11.25-8-17.08l-4.15-15.28-7.47-29.11c-36.54-155.92-40.13-320.43-3.74-475.08z"/>
					</g>
					<g id="&lt;Group&gt;">
						<path id="&lt;Path&gt;" class="s4" d="m1630.25 1614.76c17.49-45.32 43.87-82.39 77.64-114.71 33.93-32.24 78.99-56.86 123.16-69.76 47.93-13.63 91.12-16.47 136.6-13.86 44.65 3.48 90.57 12.22 132.86 37.44-42.86 22.65-82.01 38.45-121.8 52.12-38.94 13.27-79.96 24.48-114 34-37.48 11.06-70.84 21.67-108.32 35.84-37.92 13.74-78.16 29.96-126.14 38.93z"/>
					</g>
					<g id="&lt;Group&gt;">
						<path id="&lt;Path&gt;" class="s4" d="m2223.14 2693.45c41.25 32.32 86.76 56.68 133.46 74.57 47 17.23 96.18 26.68 145.38 25.04 99.32-1.53 193.4-45.51 282.77-99.61-35.42 38.74-77.34 72.48-125.35 96.88-47.72 24.66-101.63 39.49-156.56 40.95-110.29 2.69-218.13-52.49-279.7-137.83z"/>
					</g>
					<g id="&lt;Group&gt;">
						<path id="&lt;Path&gt;" class="s4" d="m3370.5 1614.76c-47.97-9-88.21-25.22-126.1-38.93-37.51-14.17-70.84-24.74-108.35-35.84-34.04-9.52-75.07-20.73-114-34-39.79-13.67-78.95-29.47-121.81-52.12 42.3-25.22 88.22-33.96 132.87-37.44 45.47-2.61 88.7 0.23 136.6 13.86 44.13 12.86 89.26 37.48 123.15 69.76 33.78 32.32 60.16 69.35 77.64 114.71z"/>
					</g>
					<g id="&lt;Group&gt;">
						<path id="&lt;Path&gt;" class="s4" d="m1250.75 2464.18c30 3.29 56.53 21.04 79.02 39.65 22.72 19.09 42 41.55 59.08 65.5 8.29 12.47 15.99 24.88 22.64 37.84 6.57 13.75 12.78 26.68 17.52 40.4 10.24 27.08 18.01 54.13 25.26 82.72-21.15-20.78-37.1-45.55-52.05-69.5l-21.97-35.27c-7.28-11.85-14.83-23.5-22.79-34.37-15.36-22.83-32.09-44.73-48.94-66.51-17.57-21.3-34.53-42.63-57.77-60.46z"/>
					</g>
					<g id="&lt;Group&gt;">
						<path id="&lt;Path&gt;" class="s4" d="m3750.04 2464.18c-23.24 17.83-40.2 39.16-57.76 60.46-16.86 21.78-33.59 43.68-48.95 66.51-7.96 10.87-15.51 22.56-22.79 34.37l-22.01 35.27c-14.94 23.95-30.86 48.72-52.01 69.5 7.25-28.59 15.02-55.64 25.26-82.72 4.75-13.72 10.95-26.65 17.52-40.4 6.65-12.96 14.35-25.37 22.65-37.84 17.07-23.95 36.35-46.41 59.07-65.5 22.49-18.61 49.02-36.36 79.02-39.65z"/>
					</g>
					<path id="&lt;Path&gt;" class="s4" d="m1982.37 2150.1c-39.08 39.09-102.45 39.01-141.57-0.07-39.12-39.08-39.12-102.45-0.04-141.53 39.08-39.08 102.45-39.08 141.53 0 39.12 39.15 39.16 102.52 0.08 141.6z"/>
					<path id="&lt;Path&gt;" class="s4" d="m3019.36 2150.1c39.08 39.09 102.45 39.01 141.53-0.07 39.12-39.08 39.16-102.45 0.08-141.53-39.08-39.08-102.46-39.08-141.57 0-39.12 39.15-39.12 102.52-0.04 141.6z"/>
				</g>
			</g>
		</g>
	</g>
</svg>